<?xml version="1.0" encoding="UTF-8"?>
<svg id="Layer_2" data-name="Layer 2" xmlns="http://www.w3.org/2000/svg" viewBox="0 0 312.48 211.73">
  <defs>
    <style>
      .cls-1 {
        fill: #fff;
      }
    </style>
  </defs>
  <g id="Layer_1-2" data-name="Layer 1">
    <g>
      <path class="cls-1" d="m156.46,97.66c-5.17,6.8-10.01,13.74-15.42,20.2-12.56,14.98-28.17,25.4-47.73,28.41-23.2,3.57-45.09-.07-64.18-14.75C13.2,119.27,3.4,103.25.7,83.18-1.97,63.28,3.03,45.28,15.3,29.57,27.31,14.2,43.14,4.6,62.49,1.38c25.4-4.22,48.19,2.01,68.21,18.06,9.73,7.8,17.44,17.49,24.52,27.69.21.31.41.62.64.91.08.1.25.13.49.25,2.83-3.8,5.59-7.69,8.53-11.42,13.23-16.79,29.43-29.36,50.63-34.32,24.99-5.84,48.22-1.87,68.7,14.04,14.71,11.43,24.03,26.42,27.15,44.96,3.57,21.22-1.51,40.29-14.85,57.1-12.15,15.31-28.13,24.54-47.3,27.59-21.54,3.42-42.05.4-60.4-12.41-10.16-7.09-18.23-16.19-25.42-26.15-2.4-3.33-4.68-6.74-6.94-10.02Zm-77.55,23.47c2.92,0,5.89.31,8.77-.05,13.07-1.62,23.19-8.53,31.8-18.07,7.95-8.81,14.23-18.8,20.53-28.79.69-1.09.73-1.87-.03-2.92-4.97-6.91-9.57-14.12-14.91-20.72-10.74-13.27-23.93-22.58-41.63-24.14-9.25-.81-18.31-.3-26.88,3.36-18.28,7.82-29.26,21.53-30.41,41.54-1.05,18.21,7.14,32.35,22.43,42.23,9.2,5.94,19.48,8.1,30.33,7.56Zm157.26.66c4.92-.8,9.96-1.18,14.74-2.49,22.65-6.2,38-27.71,35.27-50.63-1.53-12.78-7.3-23.17-17.14-31.18-13.46-10.94-29.07-13.28-45.72-10.22-13.29,2.43-23.7,9.83-32.68,19.53-7.05,7.61-12.78,16.19-18.3,24.91-.34.54-.28,1.71.08,2.27,4.31,6.64,8.55,13.34,13.14,19.79,5.94,8.35,12.83,15.82,21.69,21.25,8.88,5.44,18.62,6.93,28.92,6.78Z"/>
      <path class="cls-1" d="m229.06,161.3c3.65,0,7.17-.09,10.69.08.68.03,1.57.93,1.91,1.65,5.17,10.89,10.26,21.82,15.5,33.03v-34.59h8.92v49.36c-3.71,0-7.36.07-11-.08-.52-.02-1.14-1.03-1.46-1.7-5-10.66-9.95-21.34-14.91-32.01-.15-.33-.34-.63-.78-1.45v35.09h-8.86v-49.37Z"/>
      <path class="cls-1" d="m95.98,161.06c7.5.26,14.97-.03,22.26.92,8.96,1.17,14.27,7.09,15.83,16.2.92,5.35.89,10.74-.44,16.04-2.35,9.42-8.71,14.72-18.04,15.98-6.41.87-12.98.61-19.61.85v-50.01Zm9.71,41.68c2.67,0,5.1.28,7.44-.06,4.29-.62,7.66-2.74,9.42-6.97,1.86-4.49,2.03-9.14,1.48-13.86-.37-3.2-.92-6.36-3.18-8.9-4.16-4.65-9.69-3.74-15.15-3.96v33.74Z"/>
      <path class="cls-1" d="m312.41,185.67c-.04,5.08-.79,9.98-2.87,14.64-4.01,8.97-12.67,12.23-21.21,11.24-10.62-1.24-15.35-8.61-16.66-17.45-1.18-7.95-1.12-15.79,2.56-23.24,4.26-8.64,12.93-11.26,20.88-10.29,11.29,1.38,15.55,9.5,16.68,18.4.28,2.22.42,4.46.62,6.7Zm-10.07-.17c-.52-3.07-.82-6.66-1.78-10.07-1.21-4.32-4.16-6.42-8.09-6.5-5.18-.1-7.84,1.49-9.56,6.06-2.53,6.74-2.34,13.67-.57,20.5,1.49,5.75,4.42,7.8,9.93,7.7,4.5-.08,7.47-2.64,8.76-8.08.7-2.95.84-6.04,1.3-9.61Z"/>
      <path class="cls-1" d="m77.34,186.94c.95,1.22,2.32,2.56,3.18,4.18,3.42,6.41,6.68,12.91,10.18,19.72-3.79,0-7.15.07-10.49-.07-.57-.02-1.33-.81-1.62-1.42-2.04-4.31-4-8.66-5.95-13.01-2.26-5.04-3.91-6.09-9.69-5.94v20.3h-9.43v-49.81c7.77.44,15.58.42,23.24,1.44,7.06.94,10.19,5.88,10.06,13.84-.1,5.54-4.04,9.72-9.49,10.77Zm-14.32-3.66c3.24-.4,6.25-.49,9.1-1.21,3.05-.77,4.77-3.49,4.69-6.36-.09-3.17-1.56-5.39-4.67-6.03-2.95-.6-6.01-.65-9.12-.96v14.54Z"/>
      <path class="cls-1" d="m47.94,210.79h-10.54c-.97-3.24-1.94-6.49-2.93-9.78h-17.81c-.98,3.22-1.97,6.47-2.97,9.74H4.16c5.08-16.56,10.1-32.96,15.16-49.44,4.16,0,8.21-.04,12.26.05.54.01,1.4.57,1.54,1.05,4.89,15.77,9.71,31.56,14.53,47.35.09.28.15.57.28,1.04Zm-22.26-40.4c-2.33,7.96-4.48,15.31-6.68,22.82h13.29c-2.16-7.45-4.28-14.78-6.62-22.82Z"/>
      <path class="cls-1" d="m140.12,161.37h9.82v2.44c0,10.2-.01,20.41.02,30.61,0,1.11.17,2.23.39,3.32.79,3.75,2.52,5.38,6.26,5.94.96.14,1.94.35,2.89.29,5.16-.31,7.68-2.31,7.99-7.5.46-7.77.37-15.58.47-23.37.05-3.82,0-7.64,0-11.63h9.48c0,.77,0,1.57,0,2.36,0,9.75-.04,19.51.01,29.26.07,14.71-10.49,19.6-22.11,18.46-3.59-.35-7.04-1.27-9.95-3.64-4.04-3.29-4.8-7.89-5.24-12.64-.06-.6-.04-1.2-.04-1.8,0-10.62,0-21.24,0-32.1Z"/>
      <path class="cls-1" d="m187.09,203.12h10.99v-34.09h-11.01v-7.63h32.14v7.44h-10.93v34.24h10.95v7.62h-32.14v-7.6Z"/>
      <path class="cls-1" d="m306.07,12.64v-4.37c-.12-.02-.23-.05-.35-.07-.59,1.55-1.17,3.11-1.76,4.66-.24-.03-.48-.07-.72-.1-.5-1.42-1-2.83-1.72-4.89-.1,2.03-.17,3.4-.24,4.78-.24,0-.48.01-.72.02v-6.76c2.96.13,1.64,3.43,3.04,4.67,1.62-1.08.26-4.3,3.14-4.72v6.82c-.23,0-.45-.02-.68-.03Z"/>
      <path class="cls-1" d="m296.3,7.09c-1.13-.24-1.8-.39-2.47-.53.01-.14.02-.28.03-.42h5.62c.03.13.07.25.1.38-.7.17-1.41.34-2.51.61v5.6c-.26,0-.51,0-.77,0v-5.63Z"/>
      <path class="cls-1" d="m101.23,64.14v14.92h-46.18v-14.92h46.18Z"/>
      <path class="cls-1" d="m210.42,79.81v-16.13h13.83v-14h16.28v13.79h14.12v16.13h-13.95v14.03h-16.26v-13.81h-14.02Z"/>
    </g>
  </g>
</svg>