<svg xmlns="http://www.w3.org/2000/svg" viewBox="0 0 34.13 49.7"><defs><style>.cls-1{fill:#fff;}</style></defs><g id="Layer_2" data-name="Layer 2"><g id="Layer_1-2" data-name="Layer 1"><path class="cls-1" d="M17.2,40.29c-.5,2.48-1,5-1.49,7.46-.38,2.1-.46,2.21-2.52,1.67C6.11,47.56,1.66,43,.31,35.89A16.78,16.78,0,0,1,12.09,16.53,17,17,0,0,1,23,48.8c-.89.33-1.83.54-2.74.81-.67.2-1,0-1.12-.73-.44-2.63-1-5.24-1.48-7.86-.06-.26-.16-.52-.24-.78Zm7.51-8.87a5.4,5.4,0,0,0-5.52,5.51,5.55,5.55,0,0,0,5.6,5.62A5.62,5.62,0,0,0,30.34,37,5.48,5.48,0,0,0,24.71,31.42ZM8.9,27.79a5.37,5.37,0,0,0-5.62,5.49,5.49,5.49,0,0,0,5.47,5.57,5.47,5.47,0,0,0,5.67-5.49A5.36,5.36,0,0,0,8.9,27.79Zm8.69-.5a3.31,3.31,0,0,0,3.53-3.38,3.52,3.52,0,0,0-3.47-3.53,3.34,3.34,0,0,0-3.45,3.47A3.13,3.13,0,0,0,17.59,27.29Z"/><path class="cls-1" d="M22.6,7.09A15.84,15.84,0,0,1,23.93,5c.74-.83,1.62-1.54,2.43-2.33a4,4,0,0,0,.86-1A2.49,2.49,0,0,1,30.48.19,2.58,2.58,0,0,1,31.94,3a2.58,2.58,0,0,1-3.18,1.79c-1.52-.41-2.1-.17-2.93,1.18l-.13.2c-1.24,1.5-1.71,3-.53,4.87a6.34,6.34,0,0,1,.39,2.67q.14,1.47-1.29,1a20.18,20.18,0,0,0-9-.9,27.47,27.47,0,0,0-4.18.87c-1.48.38-1.82.27-1.62-1.24a18.08,18.08,0,0,1,1.28-4.27c.24-.6.42-1,0-1.59s-.7-1.16-1-1.73a2.1,2.1,0,0,0-2.8-1.06A2.46,2.46,0,0,1,5.14.21,2.48,2.48,0,0,1,8.41,1.59c.15.34.35.82.63.92A5.73,5.73,0,0,1,12.2,5.76c.41.85.86,1,1.77.51a7.82,7.82,0,0,1,7.86.38C22,6.77,22.23,6.88,22.6,7.09Z"/></g></g></svg>