<svg xmlns="http://www.w3.org/2000/svg" viewBox="0 0 2499.93 2034"><defs><style>.cls-1{fill:#fff;}</style></defs><g id="Layer_2" data-name="Layer 2"><g id="Layer_1-2" data-name="Layer 1"><path class="cls-1" d="M2492.6,1132.66c-14.67-103.21-50.42-201.09-106.28-290.89-48.73-78.37-111.24-148.06-185.86-207.3l.2-.19L1417,32.35q-.85-.75-1.77-1.41C1389.13,11,1353.85,0,1315.89,0s-74.67,11-103.17,31c-30.64,21.4-48.16,49.8-49.38,80-1.12,28.2,12.33,55.34,38,76.49,50.44,39.8,100.77,80.47,151.16,121.18,48.91,39.53,99.31,80.24,149.46,119.87L542,427.93c-109.78,0-184.52,51.55-199.9,137.85-6.76,37.8,5.17,79.37,31.82,111.2,28.28,33.75,69.33,52.36,115.6,52.36l73.18,0c101.09,0,202.63-.25,304-.49l96.7-.23L92.24,1373.21l-3.46,2.53C40.12,1413,8.26,1465.33,1.39,1519.2c-5.21,40.81,4.31,78.1,27.54,107.89,27.69,35.5,70.92,55,121.74,55,49.93,0,100.87-18.92,143.51-53.36l470.47-385c-2,18.8-4.46,46.38-4.18,66.4.53,31.7,10.71,95.3,26.82,146.93,33.28,106.11,89.35,203.2,166.64,288.46,80.42,88.71,178.36,159,291.09,209,119.17,52.7,247.28,79.46,380.79,79.46H1627c133.93-.32,262.45-27.5,382-80.81C2122,1902.63,2219.86,1832,2300,1743.32c77.19-85.7,133.18-182.94,166.4-289a725.63,725.63,0,0,0,26.22-321.69Zm-857,508.59c-294.23,0-532.82-213.43-532.82-476.73s238.6-476.7,532.82-476.7,532.79,213.43,532.79,476.7S1929.79,1641.25,1635.57,1641.25Zm307.26-518.62c4.34,78.58-27,151.55-82.17,205.56-56.07,55-136.07,89.59-225.54,89.59s-169.45-34.56-225.54-89.59c-55.1-54-86.42-127-82.11-205.5,4.23-76.33,41.46-143.71,97.55-191.42,55.15-46.91,129.2-75.53,210.09-75.53s154.94,28.62,210.09,75.53c56.12,47.71,93.36,115,97.63,191.36Z"/></g></g></svg>