<?xml version="1.0" encoding="UTF-8"?>
<svg id="Layer_2" data-name="Layer 2" xmlns="http://www.w3.org/2000/svg" viewBox="0 0 403.09 363.83">
  <g id="Layer_1-2" data-name="Layer 1">
    <path d="m162.35,220.38c8.98-17.02,8.93-33.37-2.69-48.93-7.57-10.14-18.03-15.42-30.48-16.82-23.66-2.66-40.63-23.87-39.38-47.24,1.22-22.84,20.65-42.6,42.92-42.23,33.21.55,61.22,13.77,85.02,36.22,26.86,25.34,39.85,57.13,41.37,93.66.34,8.23-1.27,16.55-2.06,24.82-.09.92-.5,2.28-1.16,2.59-6.68,3.11-13.1,7.51-21.06,5.56-5.61-1.37-11.14-3.06-16.06-4.43.93-9.47,2.49-18.35,2.54-27.24.21-36.64-23.84-72.63-57.86-86.36-8.23-3.32-17.12-5.13-25.83-7.08-6.21-1.38-9.94,1.14-10.53,5.99-.58,4.75,2.47,8.14,8.66,8.77,10.96,1.12,20.97,4.86,30.48,10.19,27.04,15.15,43.5,47.3,39.39,78.15-1.08,8.13-3.96,16.02-6.1,24-.68,2.52-2.19,3.78-5.14,3.45-13.4-1.5-21.41-4.65-32.02-13.05Z"/>
    <path d="m125.75,48.95c0-5.31-.13-9.96.08-14.58.06-1.32.78-3.04,1.78-3.8,6.87-5.21,13.64-10.64,21.02-15.05,2.71-1.62,7.13-1.46,10.49-.77,63.52,13.18,109.22,49.12,136.69,107.92,6.64,14.21,10.96,29.22,13.14,44.77.33,2.39-.13,5.42-1.4,7.41-4.19,6.55-8.99,12.7-13.41,19.1-1.9,2.75-4.25,3.67-7.58,3.64-12.25-.1-11.91-.02-13.08-11.97-4.61-47.13-26.41-84.34-65.5-111.12-22.59-15.48-47.77-23.73-75.19-24.93-2.14-.09-4.27-.37-7.04-.62Z"/>
    <path d="m315.43,130.59c-3.35-7.51-6.27-14.92-9.86-21.98-23.71-46.72-59.97-79.68-108.79-98.86-1.59-.62-3.7-2.61-3.71-3.98-.04-3.2,1.72-5.36,5.59-5.57,17.7-.98,34.84,1.49,51.23,8.3,34.23,14.22,57.07,39.04,68.37,74.36,4.3,13.45,5.52,27.28,5.02,41.36-.18,5.23-3.77,5.5-7.84,6.38Z"/>
    <path d="m299.15,207.95c2.16,2.32,4.26,4.57,6.8,7.3-35.62,33.44-77.29,47.3-124.49,37.77-54.88-11.08-91.71-44.86-107.42-98.7-17.15-58.78,8.29-110.49,35.33-135.02.96.82,1.9,1.74,2.96,2.49,3.67,2.59,3.6,4.6.36,8.12-16.3,17.73-27.07,38.32-31.4,62.23-6.38,35.21-.66,68.18,20.2,97.3,30.46,42.53,72.26,61.05,124.52,54.67,26.95-3.29,49.98-15.06,69.84-33.34.84-.77,1.73-1.47,3.32-2.81Z"/>
    <path d="m148.7,296.83c10.37,0,20.33-.36,30.24.13,6.08.3,10.11,4.81,10.46,10.84.35,5.97.58,12.03-.11,17.93-.41,3.52-2.7,6.81-3.91,9.63,2.6,9.16,5.23,18.4,8,28.15h-11.58c-1.4-6.41-2.69-12.71-4.17-18.97-1.49-6.29-12.31-10.73-17.54-7.11-.9.63-1.13,2.61-1.19,3.99-.16,3.65-.06,7.31-.06,10.97,0,3.49,0,6.97,0,10.91h-10.14v-66.49Zm10.14,9.52c0,2.69,0,4.81,0,6.93,0,15.53.01,15.64,15.8,14.03,1.61-.16,4.01-2.49,4.25-4.09.61-4.07.55-8.34.03-12.43-.21-1.61-2.26-4.11-3.66-4.24-5.23-.51-10.54-.2-16.42-.2Z"/>
    <path d="m47.71,363.74c0-1.74.13-2.89-.02-3.99-.55-4,.82-5.69,5.15-5.48,6.81.32,13.64.04,20.46.08,3.61.02,5.65-1.28,5.36-5.31-.23-3.14-.14-6.32-.02-9.48.13-3.4-1.49-4.91-4.75-4.92-4.66-.01-9.32.04-13.98-.04-7.26-.13-11.85-4.51-12.14-11.74-.18-4.48-.14-8.98-.03-13.47.2-7.57,4.38-12.21,11.97-12.56,7.8-.35,15.64,0,23.45-.14,4.24-.07,3.13,2.93,3.24,5.21.12,2.34.44,4.73-3.31,4.63-6.65-.18-13.31.07-19.96-.1-3.69-.1-4.99,1.57-5.2,5.02-.76,12.31-.63,12.93,11.75,12.37,16.71-.76,20.38,4.87,19.43,19.77-.24,3.8,0,7.68-.62,11.41-.84,4.98-4.76,8.55-9.59,8.66-10.13.23-20.27.07-31.19.07Z"/>
    <path d="m108.04,363.64h-10.04v-66.53c11.01,0,21.93-.43,32.79.17,5.65.31,8.99,4.88,9.21,10.69.23,6.14.27,12.31.05,18.45-.25,6.93-4.89,11.36-11.86,11.54-5.15.13-10.32.24-15.46-.04-3.83-.21-4.88,1.27-4.75,4.9.24,6.77.07,13.56.07,20.82Zm.03-35.46c6.46,0,12.26.26,18.01-.19,1.36-.11,3.45-2.51,3.63-4.04.5-4.26.18-8.62.18-12.94,0-3.01-1.39-4.7-4.5-4.72-4.65-.03-9.32-.23-13.95.12-1.19.09-3.16,1.9-3.22,3.01-.32,5.94-.15,11.9-.15,18.77Z"/>
    <path d="m246.46,363.68v-9.34c7.68,0,15.1.02,22.52,0,7.37-.02,7.97-.63,8.03-7.9q.09-11.8-11.63-11.81c-2.66,0-5.32.07-7.98-.03-6.81-.25-11.07-4.56-11.19-11.34-.08-4.65-.04-9.31-.01-13.96.04-7.59,3.67-11.98,11.25-12.41,7.96-.45,15.96-.24,23.94-.02,1.02.03,2.55,1.68,2.85,2.84.48,1.86.13,3.93.13,6.77-7.21,0-14.11,0-21.01,0-6.82.01-7.25.46-7.31,7.41q-.08,10.08,10.23,10.05c2.99,0,5.99-.1,8.98.02,6.94.29,11.54,4.7,11.81,11.61.21,5.64.2,11.31-.02,16.95-.23,6.01-3.99,10.81-9.48,11.04-10.25.42-20.53.12-31.1.12Z"/>
    <path d="m333.39,296.76v9.73c-7.28,0-14.4.21-21.49-.07-4.67-.19-6.65,1.25-6.49,6.21.38,11.71-1.64,11.79,11.34,11.2,17.22-.78,20.63,4.92,19.79,19.98-.17,3.15.11,6.35-.27,9.47-.78,6.32-4.79,10.31-10.75,10.44-9.8.2-19.61.06-29.8.06v-9.41c6.47,0,13.04,0,19.61,0q10.68,0,10.66-10.54-.01-9.18-9.11-9.19c-3.33,0-6.66.07-9.99-.02-6.98-.2-11.41-4.63-11.55-11.59-.09-4.49-.06-8.99-.02-13.48.06-7.73,4-12.36,11.63-12.68,8.61-.37,17.25-.08,26.42-.08Z"/>
    <path d="m236.53,363.63c-9.68,0-19.47.38-29.21-.16-4.65-.26-7.72-3.9-8.53-8.58-.62-3.58-.7-7.27-.73-10.92-.08-10.81-.14-21.63.02-32.44.16-10.63,4.47-14.77,15-14.79,7.78-.02,15.57,0,23.72,0v9.76c-7.51,0-14.79.18-22.04-.07-4.49-.15-6.26,1.45-6.27,6.03-.04,11.48-.19,11.48,11.51,11.48,4.29,0,8.59,0,13.19,0v9.57h-24.5c0,6.15-.28,11.91.22,17.61.11,1.2,3.01,2.93,4.73,3.06,5.3.41,10.64.17,15.97.17,8.34,0,8.48.18,6.93,9.28Z"/>
    <path d="m38.8,297.31v9.17c-7.18,0-14.26,0-21.34,0-6.56,0-6.85.29-6.89,6.67-.02,3.3,0,6.61,0,10.6h24.75v9.77H10.69c0,6.1-.28,11.86.22,17.55.11,1.21,2.95,2.98,4.64,3.12,5.12.42,10.3.16,15.46.17q8.77,0,7.62,9.29c-9.69,0-19.51.59-29.18-.35-3.06-.3-6.13-4.37-8.4-7.33-1.22-1.59-.96-4.47-.98-6.78-.08-12.64-.09-25.28-.03-37.93.05-10.18,4.43-14.47,14.71-14.51,7.49-.03,14.97.04,22.46.08.31,0,.62.18,1.6.49Z"/>
    <path d="m403.09,296.83v9.64c-7.58,0-15.02.22-22.43-.08-4.82-.19-6.71,1.75-6.5,6.39.15,3.46.03,6.92.03,11.14,6.01,0,11.6,0,17.18,0q8.59,0,7.75,9.45h-24.76v29.94h-9.46c-.15-.35-.51-.79-.52-1.22-.05-18.12-.18-36.24-.04-54.36.05-6.23,4.07-10.45,10.8-10.8,9.1-.47,18.24-.12,27.96-.12Z"/>
    <path d="m134.96,207.78c-10.19.03-18.08-7.84-17.96-17.93.11-9.46,8.59-17.65,18.2-17.58,9.33.07,17.15,8.17,17.19,17.8.04,10.14-7.37,17.67-17.43,17.71Z"/>
    <path d="m345.62,296.91h9.49v66.52h-9.49v-66.52Z"/>
  </g>
</svg>