<?xml version="1.0" encoding="utf-8"?>
<!-- Generator: Adobe Illustrator 25.4.0, SVG Export Plug-In . SVG Version: 6.00 Build 0)  -->
<svg version="1.1" id="Layer_1" xmlns="http://www.w3.org/2000/svg" xmlns:xlink="http://www.w3.org/1999/xlink" x="0px" y="0px"
	 viewBox="0 0 800 800" style="enable-background:new 0 0 800 800;" xml:space="preserve">
<style type="text/css">
	.st0{fill:#FFFFFF;}
</style>
<path class="st0" d="M129.7,522.4l78.8-507c1.5-9.9,10.7-16.7,20.6-15.2c5.7,0.9,10.6,4.3,13.3,9.4l84.8,159L129.7,522.4z
	 M689.5,645.5l-75-466.7c-1.5-9.8-10.7-16.5-20.6-15c-3.8,0.6-7.4,2.4-10.1,5.2L110.5,645.5l261.9,147.6c16.4,9.2,36.5,9.2,52.9,0
	L689.5,645.5z M476.7,238.2L416,122.2c-4.6-8.8-15.6-12.2-24.4-7.6c-3.3,1.7-5.9,4.4-7.6,7.6L117.7,599.5L476.7,238.2z"/>
</svg>
