<?xml version="1.0" encoding="UTF-8"?>
<svg id="Layer_2" data-name="Layer 2" xmlns="http://www.w3.org/2000/svg" viewBox="0 0 326.65 509.35">
  <defs>
    <style>
      .cls-1 {
        fill: #fff;
      }
    </style>
  </defs>
  <g id="Layer_1-2" data-name="Layer 1">
    <path class="cls-1" d="m325.94,202.27c0,54.05-.55,108.12.27,162.16.33,22.1-17.36,40.13-40.11,40.04-82.23-.31-164.46-.12-246.69-.14-18.01,0-32.88-10.98-37.64-28.26-1.26-4.56-1.68-9.48-1.68-14.24C-.01,255.39-.01,148.95.02,42.5.03,20.55,10.69,6.94,28.27,1.71,31.87.64,35.76.08,39.52.08,121.75-.02,203.98-.01,286.21.02c19.47,0,34.73,11.41,38.9,29.22.86,3.65.79,7.57.79,11.37.05,53.89.03,107.78.03,161.66Zm-204.11-53.27c0-2.26,0-4.06,0-5.86,0-27.77-.1-55.54.1-83.3.03-4.66-1.44-6.01-5.98-5.88-11.64.32-23.3.33-34.95.15-4.35-.06-6.07.99-6.05,5.82.19,46.24.11,92.47.11,138.71v5.53c2.94-.83,5.16-1.36,7.32-2.07,20.1-6.66,40.07-13.78,60.33-19.9,14.43-4.36,29.27-7.15,44.56-6.58,12.56.47,16.72,4.4,16.72,16.56,0,50.05,0,100.09-.01,150.14,0,2.23,0,4.47,0,7,14.64,0,28.28-.07,41.92.04,3.88.03,3.7-2.47,3.69-5.01-.27-54.69-.13-109.38-1.06-164.06-.35-20.79-13.23-35.87-33.35-41.41-20.81-5.73-41.46-2.98-61.96,1.66-10.29,2.33-20.39,5.48-31.39,8.48Zm144.86-93.87c-2.47-.54-3.26-.87-4.06-.87-14.65-.04-29.3-.19-43.94.13-1.79.04-4.13,2.29-5.18,4.12-9.09,15.8-17.92,31.76-26.89,47.62-1.25,2.21-2.88,4.19-4.65,6.73,1.57.36,2.33.69,3.1.69,14.15.04,28.3.21,42.44-.13,2.19-.05,5.03-1.98,6.37-3.88,6.97-9.88,13.88-19.84,20.17-30.16,4.6-7.53,8.21-15.66,12.64-24.25Zm-145.45,247.93c-15.05-15.09-30.11-30.19-44.97-45.09v89.95c15.06-15.02,30.28-30.21,44.97-44.86Z"/>
    <path class="cls-1" d="m11.64,507.74Q.02,508.93.02,498.46c0-21.43,0-42.86,0-64.29q0-8.22,8.05-7.98c1.12.04,2.23.28,3.67.48v26.57c4.12-.91,7.71-1.96,11.39-2.44,4.08-.54,8.24-.94,12.33-.71,6.67.37,11.47,5.22,11.6,11.95.27,14.11.09,28.24.21,42.36.04,5.16-3.71,3.45-6.36,3.74-3.04.33-5.04-.22-4.99-4.14.18-12.62.09-25.25.06-37.87-.01-6.03-.87-6.84-7.02-6.87-1.66,0-3.35-.12-4.98.14-11.77,1.87-12.33,2.56-12.34,14.49,0,11.19,0,22.38,0,33.87Z"/>
    <path class="cls-1" d="m232.89,481.8c0,7.2-.29,14.32.1,21.41.26,4.74-2.12,4.97-5.75,5.02-3.76.05-5.74-.53-5.71-5.07.2-24.1.21-48.19,0-72.29-.04-4.96,2.62-4.67,6-4.76,3.53-.09,5.55.4,5.45,4.79-.27,12.62-.15,25.26-.03,37.89.02,1.61.96,4.58,1.46,4.58,2.26-.01,5.37-.13,6.6-1.56,3.76-4.36,7.66-8.97,9.89-14.18,2.54-5.94,6.35-7.26,11.94-6.51.96.13,1.95.02,4.14,1.16-4.5,6.33-8.52,13.08-13.68,18.83-3.29,3.67-3.1,5.69-.47,9.46,5.92,8.51,11.19,17.46,17.56,27.56-5.16,0-8.76.33-12.23-.17-1.32-.19-2.64-2.11-3.49-3.52-3.64-6.09-7.18-12.24-10.59-18.45-2.35-4.28-5.72-5.74-11.2-4.17Z"/>
    <path class="cls-1" d="m70.67,482.02c.67,3.9.97,7.85,2.07,11.56,1.44,4.86,5.67,6.62,10.19,6.28,5.56-.42,11.17-1.35,16.53-2.88,4.34-1.24,7.1-1.6,6.9,4.08-.02.61.35,1.23.69,2.33-11.67,5.33-23.47,8.11-35.96,3.82-7.38-2.53-10.64-9.01-10.81-15.9-.28-11.53.74-23.11,1.69-34.62.14-1.69,2.81-4.34,4.54-4.54,9.01-1.03,18.12-2.15,27.14-1.79,8.68.35,14.41,8.21,15.34,18.6q1.09,12.22-11.29,12.23c-8.31.01-16.62.07-24.93.12-.31,0-.61.19-2.12.71Zm26.87-9.24c.97-10.09-2.04-13.54-11.26-13.55-2.32,0-4.63-.01-6.95,0-7,.04-8.01,1.01-8.24,7.98-.06,1.76,0,3.52,0,5.57h26.46Z"/>
    <path class="cls-1" d="m208.92,479.34c.41,7.09-.54,13.96-4.58,19.96-5.7,8.47-17.33,11.66-29.46,9.3-10.17-1.98-16.12-8.07-17.56-17.69-1.08-7.2-1.14-14.9.17-22.04,2.42-13.23,11.77-19.53,26.08-19.07,2.96.1,6.02.17,8.86.93,10.23,2.75,15.89,10.5,16.48,22.13.11,2.15.02,4.31.02,6.47Zm-11.12-.62h-.02c0-2.16.08-4.33-.02-6.48-.32-6.99-4.26-11.97-10.13-12.91-10.13-1.63-16.02,1.13-18.65,8.91-2.52,7.42-2.67,15.03-.7,22.54,1.08,4.13,3.65,7.13,8.25,8.46,11.88,3.43,21.16-3.18,21.27-15.52.02-1.66,0-3.33,0-4.99Z"/>
    <path class="cls-1" d="m315.48,451.3h11.15c0,6.89.03,13.83,0,20.77-.05,8.46-.03,16.93-.37,25.38-.06,1.54-1.31,3.75-2.62,4.41-10.24,5.07-21.02,8.07-32.61,7.28-6.79-.46-12.11-5.89-12.24-13.3-.24-13.64,0-27.28-.13-40.92-.05-5.21,3.65-3.49,6.31-3.78,3.11-.34,4.99.34,4.93,4.2-.19,12.14-.09,24.28-.06,36.43.02,6.84,2.4,8.91,9.24,8.14.82-.09,1.62-.34,2.43-.51,15.49-3.27,13.99-1.26,13.96-18.55-.01-9.67,0-19.33,0-29.54Z"/>
    <path class="cls-1" d="m148.99,450.97c0,2.39.42,4.34-.13,5.96-.44,1.3-1.95,3.02-3.17,3.17-13.15,1.65-13.16,1.57-13.15,14.57,0,10.88,0,21.77,0,33.44-3.2,0-6.18.36-8.98-.18-1.09-.21-2.54-2.42-2.56-3.73-.18-14.28-.19-28.56,0-42.83.02-1.45,1.27-3.59,2.53-4.19,7.8-3.72,15.97-6.23,25.45-6.21Z"/>
  </g>
</svg>