<svg xmlns="http://www.w3.org/2000/svg" viewBox="0 0 96.47 100.39"><defs><style>.cls-1{fill:#fff;}</style></defs><g id="Layer_2" data-name="Layer 2"><g id="Layer_1-2" data-name="Layer 1"><path class="cls-1" d="M48.25,100.39H3.68C.79,100.39,0,99.61,0,96.74V11.15C0,8.27.78,7.5,3.69,7.5q33,0,66,0a1.62,1.62,0,0,0,1.87-1.3,9.37,9.37,0,0,1,17.66,0,1.56,1.56,0,0,0,1.88,1.27,19.84,19.84,0,0,1,2.78,0,2.57,2.57,0,0,1,2.55,2.6c0,.33,0,.67,0,1V96.72a10.61,10.61,0,0,1,0,1.26,2.51,2.51,0,0,1-2.24,2.36,10.79,10.79,0,0,1-1.51,0ZM66.41,90a52.2,52.2,0,0,1-3.92-4.24Q50.58,69.71,38.81,53.55a1.34,1.34,0,0,1,.08-1.27Q49.63,38.9,60.44,25.57c1.69-2.08,3.46-4.08,4.84-5.7H42.78c.55,2.74-.82,4.79-2.16,6.83q-.7,1.05-1.5,2Q33,36.57,26.77,44.39l-1.14,1.42c0-.55-.07-.78-.07-1,0-5.77,0-11.53,0-17.3,0-.5.08-1,.13-1.5a11.32,11.32,0,0,1,2.37-6.09H6.32a43.91,43.91,0,0,1,1.89,4.86,14.24,14.24,0,0,1,.25,3.76q0,26.33,0,52.64c0,3.08-.1,6.17-2.39,8.63,0,0,0,.15.06.22h22c-2.7-3.45-2.56-7.34-2.55-11.2,0-4.93,0-9.85,0-14.77,0-.4,0-.79.07-1.41.28.33.42.48.54.64,4.33,5.9,8.68,11.78,13,17.72,1.92,2.65,3.87,5.36,3.12,9ZM91,90c-2.35-2.53-2.27-5.37-2.27-8.19V38.46H70c2.59,2.88,2.18,6.19,2.18,9.4,0,10.51.05,21,0,31.54,0,3.6.66,7.35-2.16,10.62Z"/></g></g></svg>