<svg xmlns="http://www.w3.org/2000/svg" viewBox="0 0 800 800"><defs><style>.cls-1{fill:#fff;}</style></defs><g id="Layer_2" data-name="Layer 2"><g id="Layer_1-2" data-name="Layer 1"><path class="cls-1" d="M415.53,563c-7.59-.92-15.26-35.18-15.26-48.07,0,0,0-165.72,5.47-165.69C410,349.25,415.53,563,415.53,563Z"/><path class="cls-1" d="M400,0C179.09,0,0,179.09,0,400S179.09,800,400,800,800,620.91,800,400,620.91,0,400,0Zm38.15,564.63-.56.51A159.73,159.73,0,0,1,421.88,578l-.79.51a568.16,568.16,0,0,0-10.15,61.35H401.3c-2.69-29.17-6.52-56.7-6.6-57.3v.09l-1.4-1c-12.3-9-103.28-79.38-97.65-197.54,6-126.69,80.27-189,94.74-200.29,9.34-10,9.72-13.78,10.45-23.66.21.5.4,1,.52,1.32,0,0,7.12,17.58,14.16,27.47,6.43,14,66.14,50.67,91.4,162.17a271.3,271.3,0,0,1,3.95,44.35C511.33,484.58,464.3,540.47,438.15,564.63Z"/></g></g></svg>