<svg xmlns="http://www.w3.org/2000/svg" xmlns:xlink="http://www.w3.org/1999/xlink" viewBox="0 0 800 646.79"><defs><style>.cls-1{fill:url(#linear-gradient);}.cls-2{fill:url(#linear-gradient-2);}.cls-3{fill:url(#radial-gradient);}.cls-4{fill:#fff;}</style><linearGradient id="linear-gradient" x1="-5281.25" y1="3415.94" x2="-4440.55" y2="2919.19" gradientTransform="translate(555.07 267.74) scale(0.04)" gradientUnits="userSpaceOnUse"><stop offset="0" stop-color="#fff"/><stop offset="1" stop-color="#fff"/></linearGradient><linearGradient id="linear-gradient-2" x1="-5262.38" y1="-5946.55" x2="-4585.93" y2="-5946.55" xlink:href="#linear-gradient"/><radialGradient id="radial-gradient" cx="-12164.7" cy="-8589.99" r="898.12" gradientTransform="matrix(-0.04, -0.01, 0.01, -0.07, 136.13, -534.06)" xlink:href="#linear-gradient"/></defs><g id="Layer_2" data-name="Layer 2"><g id="Layer_1-2" data-name="Layer 1"><path class="cls-1" d="M542.38,206,454,234.8l-76.86,33.92-21.51,5.68c-5.47,5.21-11.21,10.48-17.42,15.83-6.82,5.87-13.16,11.21-18,15.09a134.16,134.16,0,0,0-17.49,17.36c-6.08,7.61-10.89,15.69-13,21.9-3.67,11.22-1.87,22.57,5.21,33.06,9.08,13.35,27.18,27,48.28,36.26a306.85,306.85,0,0,0,42.47,14.22c22.64,5.75,66.45,12,90.56,12.89,4.87.2,11.42.2,11.68,0,.54-.33,4.28-7.48,8.62-16.36,14.82-30.25,25.51-58.63,31.32-82.87,3.47-14.69,6.21-34.26,8-57.43.47-6.48.67-28.18.27-35.53a250.77,250.77,0,0,0-3.34-31.32,7,7,0,0,1-.2-2.73c.26-.2,1.06-.47,12-3.61l-2.2-5.21Zm-20.17,11.82c.8,0,2.94,20.5,3.47,33.46a18,18,0,0,1-.06,4.54c-.54,0-11.29-6.35-19-11.15-6.68-4.21-19.36-12.63-21.37-14.23-.67-.47-.6-.53,4.88-2.4C499.44,224.85,521.48,217.77,522.21,217.77Zm-45,14.82c.6,0,2.14.87,5.81,3.14,13.76,8.62,32.46,19,40.47,22.51,2.47,1.07,2.74.67-2.94,4.54-12.15,8.28-27.31,16.43-45.88,24.64-3.27,1.47-6,2.6-6.07,2.6a16.44,16.44,0,0,1,.8-3.67c4.47-16.63,7-33.45,7.14-46.94.07-6.68.07-6.68.67-6.88-.13.06-.07.06,0,.06Zm-9.28,3.54c.4.4.13,15.36-.4,19.44a169.88,169.88,0,0,1-6.14,29.05,46.43,46.43,0,0,1-1.54,4.67c-.27.33-9.42-8.62-12.42-12.09a90.68,90.68,0,0,1-12.29-17.89c-1.53-3-3.94-8.89-3.74-9.09,1.07-.73,36.26-14.35,36.53-14.09ZM424.25,253.3a.27.27,0,0,1,.2.06,12.77,12.77,0,0,1,1,2.41,90.51,90.51,0,0,0,11.08,19.83A113.19,113.19,0,0,0,452,292.23c1.6,1.33,3.07,2.6,3.27,2.8.4.4.54.34-10.35,4.48-12.62,4.8-26.38,9.61-42.14,14.69q-5.64,1.82-11.28,3.67c-.6.2-.4-.13,1.33-2.87,7.82-12.22,19.7-36.19,26.38-53.16,1.14-2.94,2.27-5.87,2.47-6.54a2.41,2.41,0,0,1,1.47-1.74,6.61,6.61,0,0,1,1.14-.26Zm-13.36,5.54c.2.13-3.2,7.28-6.54,13.82-6.48,12.62-13.56,25-23,40.14-1.6,2.6-3.14,5-3.34,5.27-.33.47-.47.34-1.54-1.73a61.25,61.25,0,0,1-5.14-15.5c-1-5.21-.8-14.29.34-19.9.86-4.14.8-4.07,2.8-5.07,8.55-4.34,36.19-17.3,36.46-17Zm115.19,4.67v2.81a363.14,363.14,0,0,1-3.94,50.22c-.4,2.6-.73,4.74-.8,4.8s-1.93-.53-4.2-1.2A171.93,171.93,0,0,1,486.42,307c-6.48-3.54-15.9-9.35-15.63-9.62.07-.07,2.87-1.54,6.14-3.27a392.36,392.36,0,0,0,36.53-21.44c4.08-2.74,10.22-7.14,11.56-8.35l1.06-.8ZM360.47,283.28c.27,0,.2.53-.2,2.94-.27,1.73-.6,4.94-.73,7.14-.54,9.75,1.07,17,5.87,26.85a55.27,55.27,0,0,1,2.34,5.07c-.47.4-44.67,13.36-58.56,17.17l-8,2.2c-.46.13-.53.07-.33-1.07,1.53-9.82,9-22.64,19.43-33.46,7-7.21,12.49-11.42,22-16.83,6.81-3.87,17.3-9.68,18.1-9.94,0-.07.07-.07.13-.07Zm104.18,18.63a26.16,26.16,0,0,1,3.6,1.94c14.29,8.28,34.19,16,51.15,19.9l1.54.33-2.14,1.2c-8.88,4.94-38.06,17.1-67.91,28.25-4.34,1.6-8.61,3.21-9.42,3.54a5.18,5.18,0,0,1-1.53.47c0-.07,1.2-2.41,2.74-5.28,8.34-15.62,16.76-34.66,21-47.88.54-1.27.87-2.4.94-2.47ZM454,305.38a18.9,18.9,0,0,1-1.14,3.07,419.48,419.48,0,0,1-23.17,46.68c-2.47,4.41-4.54,7.95-4.61,7.95s-2.07-1.2-4.47-2.67c-14.16-8.68-26.71-19.37-34.92-29.72l-1.21-1.47,6.08-1.67a435.35,435.35,0,0,0,58.63-20.23C451.83,306.25,454,305.38,454,305.38Zm66,23h0c.06,1.54-3.34,15.29-6.15,25.24-2.33,8.35-4.34,14.9-8,26.45-1.6,5.07-3,9.28-3.07,9.28a4.61,4.61,0,0,1-.87-.2,279.07,279.07,0,0,1-54.29-15.29c-4.68-1.87-11.35-4.88-11.75-5.21-.14-.14,3.87-2,8.94-4.21,30.39-13.29,61.91-28.38,72.73-34.86a8.62,8.62,0,0,1,2.47-1.2Zm-152.32,5.21c.13.13-8.35,12.36-20.24,29-4.14,5.81-8.95,12.62-10.75,15.16s-4.54,6.55-6.08,9l-2.8,4.34-3-2.54a110.87,110.87,0,0,1-12.42-12.69c-5.74-7.14-9.61-14.69-11.15-21.56-.73-3.21-.73-4.81-.07-5,1-.27,18.83-4.48,35.53-8.35,9.28-2.14,20-4.67,23.91-5.61s7-1.67,7.08-1.67Zm8.54,3.27,2.14,2.41A125.32,125.32,0,0,0,409.69,365a16.85,16.85,0,0,1,3.6,2.34c-.46.33-41.26,14.82-60.16,21.37-10.62,3.74-19.37,6.74-19.43,6.74a11,11,0,0,1-1.34-.87l-1.2-.87,1.93-2.8c6.28-9.08,14.16-19,31.32-39.73l11.82-14.23ZM429.52,375c.07-.06,3,1,6.61,2.34a214.22,214.22,0,0,0,24.78,7.68,274.4,274.4,0,0,0,37.46,6.48c1.47.13,2.27.27,2,.47-.46.26-10.28,3.54-17.49,5.81-11.49,3.6-46.55,13.95-75.13,22.17-5.27,1.53-9.81,2.8-10.08,2.87-.67.13-2.87-.47-2.87-.74a48.32,48.32,0,0,1,3.54-4.47,399,399,0,0,0,27.11-36.46c2.2-3.34,4.07-6.08,4.07-6.15Zm-11.75.34c.07.06-4.68,7.68-13,20.77-3.54,5.54-7.48,11.81-8.88,14s-3.34,5.48-4.47,7.34l-1.94,3.41-1-.27c-2.4-.66-19.3-6.61-23.77-8.41a165.66,165.66,0,0,1-15.56-7.15c-5.35-2.87-12-7.14-11.49-7.27.13-.07,9.28-2.54,20.3-5.55,29.25-7.95,45.48-12.55,56.1-15.89a26,26,0,0,1,3.67-1Zm83.14,19.5H501c.27.66-10.55,30.71-14.49,40.2-.86,2.13-1.2,2.67-1.67,2.6-1.13-.06-16.82-2.27-26.37-3.67-16.63-2.54-44.54-7.41-51.56-9l-1.6-.33,10-2.27c21.37-4.81,31.65-7.41,42.07-10.62a296.38,296.38,0,0,0,39.33-15.16,31.4,31.4,0,0,1,4.28-1.73Z"/><path class="cls-2" d="M451.29,0c-1.47-.2-25.17,8.35-40.47,14.56C390.19,23,374.16,31,364.28,37.93c-3.67,2.61-8.28,7.22-9,9a6.19,6.19,0,0,0-.41,2.27l8.95,8.48,21.3,6.81,50.69,9.08,58,10,.6-5c-.2,0-.33-.07-.53-.07l-7.61-1.2-1.54-2.74c-7.88-13.89-16.56-31.12-21.63-42.74A220.34,220.34,0,0,1,453.3,4.88C452.16.34,452,.07,451.29,0Zm-1.07,3.41h.07c.07.07.33,1.94.6,4.14a140,140,0,0,0,6.48,28.11c2.47,7.35,2.47,7-.4,6.08-6.81-1.87-37.33-7.14-59.43-10.22-3.54-.46-6.55-.93-6.55-1-.27-.26,16-8.75,23.11-12.08C423.25,14.23,448.35,3.74,450.22,3.41ZM385.85,33.33l2.6.86C402.61,39,438.2,45.81,457.84,47.42c2.2.2,4.07.4,4.14.4a32.4,32.4,0,0,1-4.21,2.2c-9.48,4.74-19.9,10.55-27.11,15a28.46,28.46,0,0,1-4.34,2.4c-.27,0-1.67-.27-3.14-.47l-2.67-.4L413.83,60c-11.75-11.42-21-20.24-24.51-23.58Zm-2.67,2.07,9.41,11.75c5.15,6.48,10.35,12.82,11.49,14.22a21.87,21.87,0,0,1,2,2.61c-.26.2-13.62-2.41-20.7-4-7.28-1.67-10.28-2.47-14.76-3.87L367,54.9V54c.07-4.47,5.74-11.15,15.36-18Zm80,16c.27,0,.6.6,1.4,2.41,2.27,5,9.35,18.5,11.09,21.1.53.87,1.46.93-7.95-.6-22.64-3.67-29.92-4.88-29.92-5a6.94,6.94,0,0,1,1.54-1,130.81,130.81,0,0,0,20.37-14.09c1.53-1.27,2.93-2.47,3.2-2.67C463,51.42,463.11,51.36,463.18,51.42Z"/><path class="cls-3" d="M355.73,46a6.67,6.67,0,0,0-.07,5.82c.87,2.13,3.41,4.74,6.28,7.41,0,0,29.72,29,33.32,33.12,16.43,19,23.58,37.66,24.25,63.44.4,16.56-2.74,31.12-10.56,48-13.89,30.32-43.2,63.78-88.41,100.91l6.61-2.21c4.27-3.2,10.08-6.61,23.71-14.09,31.45-17.23,66.84-33.05,110.25-49.35,62.5-23.5,165.28-51,223.77-60l6.08-.93L690,176.7a206,206,0,0,0-13.42-18.9c-12.82-15.89-28.38-28.78-47.41-39.46-26.18-14.63-60-26-102.91-34.53-8.08-1.6-25.84-4.67-40.26-6.88-30.59-4.74-50.36-8-72.12-11.75-7.82-1.34-19.5-3.34-27.25-5A173,173,0,0,1,369,55.43c-4.8-1.87-11.75-3.74-13.22-9.42ZM373,62.71a17.17,17.17,0,0,1,2.54.8c2.54.87,5.81,1.87,9.68,2.94,2.93.81,5.87,1.58,8.82,2.34,4,1,7.34,1.93,7.41,1.93.47.47,7.21,22,9.48,30.32.87,3.14,1.54,5.81,1.47,5.81a13.57,13.57,0,0,1-1.67-2.6c-7.81-13.76-20.17-27.72-34.46-38.94A27.47,27.47,0,0,1,373,62.71Zm32.86,9.08a26.26,26.26,0,0,1,3.6.6c11.35,2.54,31.72,6.41,44.74,8.62a16.43,16.43,0,0,1,3.94.86A6.4,6.4,0,0,1,456.3,83c-2.2,1.14-11.09,6.41-14,8.41a128.09,128.09,0,0,0-18.9,15.1c-1.94,1.93-3.61,3.54-3.61,3.54s-.4-1.14-.73-2.54a215.87,215.87,0,0,0-12-32.72,28.57,28.57,0,0,1-1.33-3.08c0,.14,0,.07.07.07Zm57.83,11c.4.13,1.06,2.4,2.4,7.41a109.43,109.43,0,0,1,3.21,30.59,56.3,56.3,0,0,1-.41,5.74l-.2.67-3.47-1.14c-7.14-2.27-18.76-5.67-28.71-8.48-5.68-1.53-10.29-2.94-10.29-3.07,0-.4,8.28-8.68,11.82-11.82,6.75-5.94,25-20.1,25.65-19.9Zm4.6.67c.2-.2,27.65,4.54,40.14,6.94,9.28,1.8,22.77,4.61,23.57,4.94.4.14-1,.94-5.48,2.94-17.62,8-30.71,15.09-43.73,23.78-3.41,2.27-6.28,4.14-6.35,4.14a36.12,36.12,0,0,1-.13-4.28,93.2,93.2,0,0,0-7.22-36.33A11.06,11.06,0,0,1,468.25,83.48Zm71,14c.2.2-.67,5.61-1.47,8.82-2.4,10-8.88,24.7-16.83,38.59a42.76,42.76,0,0,1-2.8,4.54,27.25,27.25,0,0,1-4-2.13A216.6,216.6,0,0,0,488,134.5c-2.67-1.14-5-2.07-5.07-2.21-.47-.4,21-14.62,32.39-21.43C524.28,105.38,539,97.23,539.24,97.5Zm5.07.8c.61,0,12.76,3.34,19.1,5.21a394.73,394.73,0,0,1,45.48,16.63l4.87,2.2-3.4.8c-28.72,6.61-53.29,14.23-77,23.84-1.93.81-3.67,1.47-3.8,1.47a16.59,16.59,0,0,1,1.4-3.4c7.14-15.16,11.75-31,12.89-44.48.06-1.27.26-2.27.46-2.27Zm-121,27.78c.2-.2,9.48,2,14.49,3.41,7.62,2.13,23.78,7.54,23.78,7.94,0,.07-1.81,1.61-3.94,3.48-8.75,7.28-17.17,15-27.25,24.7-3,2.88-5.54,5.21-5.68,5.21s-.2-.4-.13-.93c1.54-11.22,1.2-25.64-.93-40.27C423.44,127.75,423.25,126.15,423.31,126.08Zm195.06.2a126.18,126.18,0,0,1-7.08,11c-4,5.74-9.88,13.36-23.17,30-7,8.82-14.89,18.77-17.49,22.11s-4.88,6.14-5,6.14a24.48,24.48,0,0,1-1.87-2.67,137.8,137.8,0,0,0-27-29.85c-2-1.67-4.21-3.48-4.94-4a7.53,7.53,0,0,1-1.34-1.13c0-.2,11.35-5.08,20-8.55,15.09-6.15,35.66-13.49,51.08-18.23,8.08-2.54,16.7-5,16.83-4.88Zm5.14,1.34a15,15,0,0,1,3.81,1.87A226.39,226.39,0,0,1,672,163c3.53,3.47,12.28,12.56,12.15,12.62s-3.07.27-6.68.54c-28.11,2.13-64.11,8.08-98.7,16.42-2.33.54-4.4,1-4.54,1s2.47-2.6,5.75-5.74c20.3-19.56,29.58-31.92,40.53-54,1.53-3.27,2.87-6.07,3-6.27ZM474.8,142.84c.93.2,9.61,4.28,16.16,7.55,6,3,15,7.81,15.49,8.21.07.07-3.14,1.74-7.08,3.68-12.55,6.27-23.3,12.22-34.52,19-3.21,1.93-5.88,3.54-5.94,3.54-.27,0-.21-.27,1.6-3.54a139.1,139.1,0,0,0,13.55-36.8c.27-1,.54-1.67.74-1.67Zm-8.68,1.61c.2.2-2.07,8.41-3.48,12.88a163.12,163.12,0,0,1-11.82,27.12c-1.06,1.87-2.67,4.6-3.54,6.14l-1.66,2.67-3.74-3.6a48.8,48.8,0,0,0-12.42-9.15,18.39,18.39,0,0,1-3.21-1.87c0-.54,11.42-10.89,20.17-18.37,6.27-5.41,19.5-16,19.7-15.82Zm53.09,21.83,3.27,2.14a254.2,254.2,0,0,1,23,17c3.8,3.14,11.15,9.75,12.62,11.35l.8.87-5.41,1.54c-30.58,8.48-54.22,16-81.8,26.17-3.08,1.14-5.68,2.07-5.88,2.07-.4,0-.74.34,6.14-6,17.63-16.22,33.26-34.12,44.88-51.55l2.34-3.61Zm-14,3.48c.13.13-9,13-14.49,20.3-6.55,8.68-18.17,23.23-26.18,32.72-3.34,3.94-6.21,7.21-6.34,7.28s-.27-.94-.27-2.47a56,56,0,0,0-5.68-24.05c-1.53-3.07-1.8-3.8-1.46-4.13,1.26-1.14,20.7-12.23,33-18.84,8.28-4.4,21.24-10.95,21.44-10.81Zm-84.41,20.7a29.54,29.54,0,0,1,3.47,1.73,73.2,73.2,0,0,1,11.49,7.75c.13.13-1.6,1.54-3.87,3.2-6.35,4.55-16,11.82-21.57,16.3-5.88,4.67-6.08,4.81-5.41,3.81a114.67,114.67,0,0,0,14.56-29.39,11.38,11.38,0,0,1,1.33-3.4Zm22.51,17.63c.33-.07.73.53,2.53,3.2a48.08,48.08,0,0,1,7.48,19.43l.14,1.34-9.15,3.54c-16.36,6.34-31.46,12.62-41.67,17.29-2.87,1.34-7.88,3.74-11.15,5.35s-5.95,2.94-5.95,2.87,2.07-1.6,4.61-3.47c20-14.49,37.26-30.39,50.22-46.28,1.4-1.67,2.67-3.21,2.8-3.27ZM433,210.62c.26.27-7.35,8.89-12.56,14.16A221.42,221.42,0,0,1,379,258.24c-2,1.27-3.81,2.4-4,2.54-.46.26.14-.41,7.08-7.95,4.41-4.74,7.75-8.75,11.56-13.69a22.58,22.58,0,0,1,6.67-6.35C410.09,225.72,432.73,210.36,433,210.62Z"/><path class="cls-4" d="M143.82,487.13c-1.23,0-2.46.12-3.68.12-24.88,1.33-41.67,12.28-51.48,33.66-8.39,19.34-7.47,44.62.1,64.08,8.8,19,23,29,46.76,32.84,5,.82,8.4,3.58,18.13,14.94l12,14h21.71l-14.44-14.55c-8-8-14.43-14.93-14.43-15.54s3-2,6.74-3.07c12.19-3.69,22.3-13.1,29.38-27.53,5.73-11.58,6.55-15.16,7.37-29.57,2.15-42.9-20.47-69.71-58.13-69.41Zm19,112.18c-10.57,5.11-25.9,6.14-35.91,2.46-10.36-3.8-20.38-14.55-24.89-26.72-5-13.31-4.29-37.86,1.44-48.92,9.21-17.6,21.39-25.7,39.19-25.7,26.41,0,41.43,16.17,43.39,46.57,1.55,25.37-6.94,44.41-23.21,52.3Zm375.06-75.54c-9.11,0-16.08,3.69-20.77,11l-3.69,5.75v-15H497.7v89.67h15.75V586.53c0-26.21.33-29.27,4-36.44,5-9.84,13.73-14.74,22.12-12.4l5.64,1.65V523.8h-7.28v0Zm-92.6-.82a45.17,45.17,0,0,0-9.62,1.13c-21.09,5.51-33,25.7-32.25,46.47,0,17.4,3.38,26.09,11.77,35.21C432.41,619.87,448,621,469,613.43c3.58-1.53,7.47-3.29,7.47-3.29V596L469,599.91c-17,7.39-29.78,7.39-40-1.32-6.54-6.65-9.42-14.63-10.74-23.74h63.55V562.76c0-24.64-14.83-40.21-36.43-39.81Zm-25.7,39.32s2.35-15.38,11.06-21.41a23.74,23.74,0,0,1,13.7-4.39,21.92,21.92,0,0,1,13.31,4.5c8,6.14,9.32,21.18,9.32,21.18H419.62v.12Zm-380-16.17C22.55,535.75,15,528.28,15.9,519.48c2.65-24.35,32.74-21,49.41-11.77l.11-16.39A64.21,64.21,0,0,0,43,487.12c-20.26-.3-33.36,6.34-39.49,19.86-9,19.95-1,35,27.81,51.78,16.2,9.42,23.36,17.6,23.36,26.52,0,18.43-22.22,24.86-45.14,13.3-4.72-2.35-8.71-4.31-8.92-4.31C-.19,599.5.23,612,.23,612a97.74,97.74,0,0,0,17.61,5c26.19,5.23,50-7.06,52.28-27,2-18.73-4.81-28.56-30.48-43.9Zm637.78-23.36a47.37,47.37,0,0,0-9.74,1.14c-21.07,5.52-32.94,25.7-32.13,46.48,0,17.37,3.37,26,11.76,35.09,17.2,14.12,32.75,15.25,53.84,7.67,3.56-1.52,7.45-3.26,7.45-3.26V595.73l-7.46,3.9c-17,7.37-29.81,7.37-40-1.34-6.58-6.64-9.43-14.53-10.75-23.74h63.44V562.46c0-24.53-14.83-40.1-36.43-39.69l0,0Zm-25.71,39.32s2.38-15.35,11.07-21.5a23.63,23.63,0,0,1,13.7-4.4,21.94,21.94,0,0,1,13.31,4.5c8,6.14,9.32,21.29,9.32,21.29H651.73l0,.11ZM362.82,546.3c-17.09-10.33-24.65-17.82-23.73-26.62,2.65-24.37,32.74-21,49.41-11.77l.11-16.39a64,64,0,0,0-22.41-4.18c-20.26-.3-33.36,6.34-39.51,19.86-9,19.95-.91,35,27.84,51.78,16.18,9.42,23.33,17.49,23.33,26.41,0,18.42-22.2,25-45.12,13.3-4.7-2.35-8.69-4.29-8.92-4.29-.82,5.22-.4,17.72-.4,17.72a106.33,106.33,0,0,0,17.49,5c26.22,5.24,50.06-7,52.31-27,1.94-18.64-4.82-28.46-30.4-43.81v0ZM770,523.56c-9.11,0-16.16,3.7-20.78,11l-3.68,5.73V525.32H729.81V615h15.75V586.31c0-26.2.31-29.28,4-36.43,5-9.83,13.73-14.74,22.12-12.39l5.63,1.65V523.56ZM237.48,545.78V488.67H221.59V615.16h66.82V600.22H237.48V545.78ZM605,563.58l-13.1,34.08-12.59-34.27-12.8-38H550.21c10.54,29.88,22,60.27,33.56,89.74,5,.12,10,0,15.05,0l17.69-44.41,18-45.32H619s-6.87,18-14,38.16ZM274.09,454.2a8.71,8.71,0,0,0,6.46-2.58,8.59,8.59,0,0,0,2.65-6.34,8.45,8.45,0,0,0-2.65-6.34,8.83,8.83,0,0,0-6.34-2.46,8.71,8.71,0,0,0-6.46,2.56,8.53,8.53,0,0,0-2.55,6.34,8.27,8.27,0,0,0,2.55,6.33,8.61,8.61,0,0,0,6.34,2.47v0Zm-5.63-14.55a8,8,0,0,1,13.73,5.63,7.87,7.87,0,0,1-2.35,5.73,7.66,7.66,0,0,1-5.63,2.25,7.47,7.47,0,0,1-5.63-2.25,7.87,7.87,0,0,1-2.35-5.73A7.56,7.56,0,0,1,268.46,439.65Zm3.79,6.45h1c.73,0,1.45.71,2.06,2l1.23,2.77h1.94L277,447.84c-.62-1.23-1.23-1.95-2-2.15a3.73,3.73,0,0,0,2.14-1.12,2.86,2.86,0,0,0,.7-2.06,2.63,2.63,0,0,0-.91-2.16,5.19,5.19,0,0,0-3.29-.9h-3.26v11.47h1.64V446.1Zm0-5.32h1.43a3.72,3.72,0,0,1,2.16.51c.39.31.49.71.49,1.43,0,1.33-.82,1.95-2.34,1.95h-1.76v-3.89ZM9.76,445.08c0-4-.12-7-.21-8.7h.09A26.18,26.18,0,0,0,11,441l15.25,34.08h2.56L44,440.69a31.46,31.46,0,0,0,1.33-4.3h.11c-.3,3.4-.41,6.36-.41,8.72v30.08h5.22V430.47H43.75l-14,31.1c-.51,1.23-1.23,3.08-2.15,5.52h-.21a35.58,35.58,0,0,0-2-5.31L11.61,430.37h-7v44.71h5v-30Zm52,.09h4.51V473H61.74ZM64,435a3.19,3.19,0,0,0,2.35-.94,3.26,3.26,0,0,0,1-2.35,2.94,2.94,0,0,0-1-2.35,3.28,3.28,0,0,0-2.37-.94,3.24,3.24,0,0,0-2.35.94,3.3,3.3,0,0,0-1,2.35,2.84,2.84,0,0,0,1,2.35A3.41,3.41,0,0,0,64,435Zm34.39,38.67v-4.91a13,13,0,0,1-7.86,2.76,10.19,10.19,0,0,1-7.9-3.29,12.67,12.67,0,0,1-3-8.8c0-3.87,1-6.95,3.17-9.3a10.31,10.31,0,0,1,8-3.38,13.13,13.13,0,0,1,7.58,2.47V444A15.57,15.57,0,0,0,91,442.31c-5.12,0-9.11,1.65-12.09,4.82s-4.48,7.47-4.48,12.67c0,4.63,1.32,8.51,4.08,11.48a14.53,14.53,0,0,0,11.06,4.6A18,18,0,0,0,98.38,473.63Zm12.9-14.85c0-3.67.82-6.64,2.34-8.69a6.43,6.43,0,0,1,5.23-2.76,6,6,0,0,1,3.87,1V443a8,8,0,0,0-3-.41,7.79,7.79,0,0,0-4.93,1.76,10.71,10.71,0,0,0-3.46,5.4h-.12v-6.54h-5.1v31.92h5.11V458.78Zm29.37,17c4.81,0,8.69-1.55,11.56-4.63s4.3-7.16,4.3-12.27-1.32-9.22-4-12.19-6.34-4.4-11.15-4.4-8.69,1.43-11.56,4.2c-3.08,3.06-4.7,7.36-4.7,12.89,0,4.81,1.32,8.8,4.09,11.77s6.65,4.61,11.45,4.61v0Zm-7.27-26a10.08,10.08,0,0,1,7.67-3.08,9.55,9.55,0,0,1,7.58,3.08c1.85,2.15,2.76,5.21,2.76,9.31,0,3.89-.82,7-2.56,9s-4.29,3.29-7.67,3.29a10,10,0,0,1-7.78-3.29c-1.94-2.16-2.87-5.12-2.87-9C130.31,455.22,131.33,452.06,133.38,449.79ZM178.91,473a8.4,8.4,0,0,0,3-6.55,8,8,0,0,0-2.34-5.84,18.26,18.26,0,0,0-6-3.47,18.9,18.9,0,0,1-4.82-2.66,4.41,4.41,0,0,1-1.32-3.29A3.85,3.85,0,0,1,169,448a6.33,6.33,0,0,1,4.11-1.22,12.06,12.06,0,0,1,7.28,2.27V444a15,15,0,0,0-6.87-1.53,12.19,12.19,0,0,0-8.1,2.66,8.78,8.78,0,0,0-1.12,12.37A16.43,16.43,0,0,0,170,461a21.77,21.77,0,0,1,5.23,3,3.94,3.94,0,0,1,1.32,3.06c0,3-2,4.51-6,4.51a12.68,12.68,0,0,1-8.3-3.05v5.52a15.1,15.1,0,0,0,7.87,1.95c3.79-.2,6.76-1.13,8.8-3Zm24.37-30.71c-4.82,0-8.69,1.44-11.56,4.21-3.05,3.05-4.7,7.35-4.7,12.88,0,4.81,1.33,8.81,4.09,11.77s6.65,4.62,11.46,4.62,8.69-1.55,11.56-4.63,4.31-7.16,4.31-12.27-1.34-9.22-4-12.19-6.46-4.4-11.15-4.4Zm9.93,16.79c0,3.89-.83,7-2.56,9A9.34,9.34,0,0,1,203,471.4a10,10,0,0,1-7.78-3.29c-1.94-2.16-2.86-5.12-2.86-9,0-4.11,1-7.28,3.07-9.42a10.11,10.11,0,0,1,7.68-3.07,9.69,9.69,0,0,1,7.55,3.07c1.65,2.26,2.56,5.32,2.56,9.42Zm13.82,16h5.11V447.43h7.47v-4.29h-7.47v-4.93c0-4.49,1.73-6.74,5.32-6.74a7.13,7.13,0,0,1,3.36.82v-4.61a9.39,9.39,0,0,0-3.69-.5,9.54,9.54,0,0,0-6.85,2.55A10.78,10.78,0,0,0,227,438v5.24h-5.4v4.29H227v27.53Zm21-8.71c0,6.25,2.76,9.43,8.39,9.43a9.24,9.24,0,0,0,4.82-1.06v-4.39a5.39,5.39,0,0,1-3.29,1c-1.74,0-3-.41-3.67-1.34a7.46,7.46,0,0,1-1.14-4.6v-18h8.1v-4.3h-8.1v-9.41c-1.76.61-3.49,1.13-5.12,1.64v7.77h-5.51v4.3H248v18.93Zm549.25,58.85a8.74,8.74,0,0,0-6.33-2.47,8.78,8.78,0,0,0-9,8.92,8.39,8.39,0,0,0,2.55,6.34,9,9,0,0,0,6.45,2.46,8.79,8.79,0,0,0,6.46-2.56,8.62,8.62,0,0,0,2.64-6.33,8.84,8.84,0,0,0-2.76-6.36Zm-.82,12.08a7.54,7.54,0,0,1-5.63,2.23,7.62,7.62,0,0,1-5.63-2.23,7.92,7.92,0,0,1-2.35-5.75,7.56,7.56,0,0,1,2.25-5.63,8,8,0,0,1,13.71,5.63A7.33,7.33,0,0,1,796.43,537.29Zm-4.6-5.22A4.4,4.4,0,0,0,794,531a2.83,2.83,0,0,0,.71-2.07,2.63,2.63,0,0,0-.92-2.15,5.17,5.17,0,0,0-3.28-.9h-3.27v11.45h1.65v-4.81h1c.7,0,1.41.7,2,2l1.22,2.76h2l-1.53-3.08c-.53-1.33-1.14-1.94-1.76-2.14l0,0Zm-1.12-1H789v-3.87h1.44a3.59,3.59,0,0,1,2.15.5c.41.31.5.71.5,1.43,0,1.33-.82,1.94-2.34,1.94ZM505.18,441.81h1.43V430.34h3.79v-1.43h-9v1.43h3.79v11.47Zm8.68-8.61a21.22,21.22,0,0,0-.08-2.55,6.89,6.89,0,0,0,.4,1.32l4.4,9.84h.71l4.41-9.93c.12-.3.21-.7.41-1.23a23.8,23.8,0,0,0-.1,2.46v8.69h1.53V428.91H523.7l-4,8.9c-.1.31-.41.94-.61,1.64H519a8.64,8.64,0,0,0-.59-1.52l-4-9h-2.06v12.91h1.44v-8.61Z"/></g></g></svg>