<svg xmlns="http://www.w3.org/2000/svg" viewBox="0 0 237.84 161.54"><defs><style>.cls-1{fill:#fff;}</style></defs><g id="Layer_2" data-name="Layer 2"><g id="Layer_1-2" data-name="Layer 1"><path class="cls-1" d="M28.59,132.68c.1-.23.17-.36.22-.49q2.52-7.66,5.06-15.34,2.91-8.79,5.83-17.58c.71-2.14,1.42-4.29,2.11-6.44a.6.6,0,0,1,.67-.5c3.28,0,6.57,0,9.85,0,.37,0,.53.09.57.49.53,5,1.1,9.93,1.59,14.89.45,4.52.87,9.05,1.21,13.57.36,4.89.64,9.78.91,14.67.18,3.44.28,6.89.41,10.33,0,.26,0,.52,0,.82H47.91c-.32-14.42-1.09-28.83-2.64-43.19l-.15-.06a1.92,1.92,0,0,0-.27.45q-2.54,7.92-5,15.83l-4.65,14.46c-1.27,4-2.54,7.93-3.79,11.91a.77.77,0,0,1-.91.64c-1.89,0-3.77,0-5.66,0-.44,0-.66-.1-.8-.56q-2.62-8.33-5.28-16.64-2.91-9.15-5.83-18.3-1.17-3.66-2.32-7.32a1.31,1.31,0,0,0-.3-.55c-.5,4.78-.81,9.56-1,14.35s-.45,9.63-.62,14.45-.27,9.64-.4,14.51H0c0-1.18,0-2.34,0-3.5.15-4,.27-8,.49-12,.27-4.78.56-9.56,1-14.33.55-6.55,1.21-13.09,1.85-19.64.15-1.59.39-3.17.56-4.77.05-.38.19-.48.57-.48q5.16,0,10.3,0c.35,0,.57,0,.71.45q3.36,10.32,6.76,20.62,3.06,9.34,6.13,18.67C28.41,132.25,28.48,132.42,28.59,132.68Z"/><path class="cls-1" d="M176.13,143.53l10,5c-1.22,2.1-2.39,4.12-3.59,6.17L176.22,151c-2.13-1.24-4.25-2.49-6.39-3.72a1,1,0,0,0-.68-.14,26.68,26.68,0,0,1-9,.81,21.93,21.93,0,0,1-8.08-1.91,16.47,16.47,0,0,1-8.21-8.51,29.4,29.4,0,0,1-2.51-9.68c-.24-2.78-.43-5.57-.41-8.35a40.14,40.14,0,0,1,2.35-14A21.39,21.39,0,0,1,151.14,95a19.25,19.25,0,0,1,7.6-3,27.15,27.15,0,0,1,11.49.35,17,17,0,0,1,11.31,8.9,29.39,29.39,0,0,1,2.89,9.22,54.68,54.68,0,0,1,.52,11.78,37.9,37.9,0,0,1-2.78,13.07,21.36,21.36,0,0,1-5.5,7.78Zm-.29-23.44c-.12-1.92-.2-3.84-.35-5.75a29.62,29.62,0,0,0-1.94-8.91,11.21,11.21,0,0,0-4.24-5.43,12.06,12.06,0,0,0-7.53-1.69,10,10,0,0,0-6.49,2.68,14.19,14.19,0,0,0-3.66,6.27A36.68,36.68,0,0,0,150.18,118c0,2.24.06,4.49.23,6.72a29.14,29.14,0,0,0,2.13,9.6,10.49,10.49,0,0,0,5.93,6,13.17,13.17,0,0,0,6.28.7,9.87,9.87,0,0,0,6.72-3.54,16,16,0,0,0,3-6.18A45.93,45.93,0,0,0,175.84,120.09Z"/><path class="cls-1" d="M183.87,77.22a8.21,8.21,0,0,1-2.35-1.7c-1.53-1.37-3.07-2.72-4.61-4.07a31.49,31.49,0,0,1-6-6.69,48.66,48.66,0,0,1-2.23-4.38l-.79-1.54a8.76,8.76,0,0,0-.26.88c-.31,1.9-.59,3.8-.92,5.69a7.22,7.22,0,0,1-.45,1.57,3.77,3.77,0,0,1-5.54,1.7,11.22,11.22,0,0,1-3.9-4.6,27,27,0,0,1-2.69-12.87,30.69,30.69,0,0,1,1.39-8.67c.28-.9.42-1.84.66-2.75a6.87,6.87,0,0,1,.42-1.23c.44-1,.37-1.31-.41-2.12a10.66,10.66,0,0,1-1.32-1.53,34.27,34.27,0,0,1-4-8.26c-.78-2.28-1.51-4.57-2.25-6.86a14.92,14.92,0,0,0-2.51-4.2c-1.44-2-2.94-3.87-4.32-5.86a7.37,7.37,0,0,1-1.39-4A5.39,5.39,0,0,1,146.5,0a18.46,18.46,0,0,1,7,2.16c1.34.69,2.64,1.46,3.91,2.26a17.67,17.67,0,0,1,1.78,1.48,2.48,2.48,0,0,0,1.66.58,31,31,0,0,1,9.55,1.58,26.36,26.36,0,0,1,5.76,3,76.92,76.92,0,0,1,10.18,7.5A54.48,54.48,0,0,1,194.24,27c1.79,2.44,3.53,4.94,5.08,7.53a52.79,52.79,0,0,1,2.41,5.29q3,6.48,6,13c.65,1.38,1.34,2.74,2,4.12a5.05,5.05,0,0,0,3,2.57,46.45,46.45,0,0,1,12.54,7c1.88,1.51,3.83,2.94,5.62,4.55a29.2,29.2,0,0,1,2.92,3.35c1,1.15.94,1.15-.52,1.6a24.41,24.41,0,0,1-5.36,1.09,28.87,28.87,0,0,0-5.74,1.2c-.65.19-1.32.29-2,.43a3.13,3.13,0,0,0,1.24,1.84c1.52,1.08,3,2.16,4.64,3.1a30.83,30.83,0,0,1,8.2,7.19,20.64,20.64,0,0,0,1.83,1.91,4,4,0,0,1,1.15,1.72,5.93,5.93,0,0,1,.36,1.08,4.49,4.49,0,0,1-.69-.44,35.4,35.4,0,0,0-10.22-6.64,31.87,31.87,0,0,1-8.23-5.31,11.59,11.59,0,0,1-3.4-4.73,4.85,4.85,0,0,0-.29-.61.76.76,0,0,1,.28-1.18,2.34,2.34,0,0,1,.49-.27,33.31,33.31,0,0,1,10-2.29c1.28,0,2.56-.06,3.85-.09H230l.11-.18a9.1,9.1,0,0,0-1-1.14c-.68-.54-1.4-1-2.12-1.5-2.59-1.76-5.13-3.57-7.79-5.22a21.14,21.14,0,0,0-3.92-1.71c-1.58-.59-3.19-1.15-4.82-1.6a6.85,6.85,0,0,1-4.42-3.9Q204,54.42,202,50.09c-1.37-2.93-2.86-5.82-4-8.83a52.66,52.66,0,0,0-8.85-14.49,54.69,54.69,0,0,0-6.55-6.63,51.32,51.32,0,0,0-15-9.13,20,20,0,0,0-5.94-.92,30,30,0,0,1-3.15-.26A3,3,0,0,1,157,9.06c-2.75-2.58-6.16-3.95-9.59-5.25a5.4,5.4,0,0,0-1.82-.35,2,2,0,0,0-2.15,2.71,12.54,12.54,0,0,0,2.32,4.1,67.56,67.56,0,0,1,4.62,6.61,38.38,38.38,0,0,1,2.48,6.35,42.93,42.93,0,0,0,3.22,8.18,12.63,12.63,0,0,0,2.57,3.34,3.34,3.34,0,0,1,1.11,3.77c-.43,1.34-.86,2.69-1.36,4A24.67,24.67,0,0,0,157,50.46a26.2,26.2,0,0,0,1.22,9.26A35,35,0,0,0,160,63.8a3.55,3.55,0,0,0,1.92,1.75c.54.22.71.12.79-.46.28-2.14.54-4.29.87-6.43a12,12,0,0,1,3.15-6.39c.33-.36.62-.75,1-1.22a3.91,3.91,0,0,1,.41.67,72,72,0,0,0,7.7,15.55,44.1,44.1,0,0,0,6.5,8.45c.51.49,1.08.91,1.63,1.37Z"/><path class="cls-1" d="M133.92,95.69l-2.1,4.67-1.48-.55a25.54,25.54,0,0,0-9.06-1.7,9.69,9.69,0,0,0-6.22,1.78,6.81,6.81,0,0,0-1.27,9.71,15.82,15.82,0,0,0,5.08,4.15c3.84,2.16,7.75,4.2,11.51,6.49,3.57,2.17,6.1,5.23,6.58,9.57.71,6.23-1.44,11.74-7.36,15.34a19.57,19.57,0,0,1-7.83,2.54,27,27,0,0,1-18.66-4.58c-.39-.25-.45-.45-.24-.85.72-1.38,1.42-2.78,2.1-4.12,1.64.66,3.23,1.37,4.86,1.92a18.87,18.87,0,0,0,11.6.61,8.14,8.14,0,0,0,5.37-4.34,7.39,7.39,0,0,0-1.33-8.29,19.19,19.19,0,0,0-5-3.75c-3.57-2-7.19-3.9-10.65-6.05a12.37,12.37,0,0,1-6-7.73c-1.19-5.1-.51-9.86,3.18-13.85a15.27,15.27,0,0,1,9.21-4.75,24.94,24.94,0,0,1,15.87,2.64c.53.29,1,.6,1.56.91A2.42,2.42,0,0,1,133.92,95.69Z"/><path class="cls-1" d="M60.84,155.36c1,.07,2,.16,3,.2A10,10,0,0,0,70.27,154c2.63-1.89,4.42-4.88,3.48-8.48q-1.31-5-2.84-9.93c-1.93-6.18-4-12.34-5.94-18.5l-3.13-9.73c-.06-.17-.09-.35-.15-.58.23,0,.39,0,.55,0,2.61,0,5.21,0,7.81,0a.67.67,0,0,1,.76.55c2,6.68,4.12,13.35,6.15,20,.85,2.79,1.66,5.6,2.35,8.43.4,1.59.52,3.26.79,5a135.6,135.6,0,0,0,5-16.7,172.41,172.41,0,0,0,3.1-17.27h8.63c-.11.61-.19,1.2-.32,1.77-1.18,5.26-2.25,10.54-3.58,15.76A105.17,105.17,0,0,1,86,143.9a46.5,46.5,0,0,1-7.16,11.2,18.92,18.92,0,0,1-8.24,5.75,19.51,19.51,0,0,1-3.49.64,12.58,12.58,0,0,1-5.94-1.18.58.58,0,0,1-.32-.39C60.83,158.42,60.84,156.91,60.84,155.36Z"/><path class="cls-1" d="M193,92.32c2.89,0,5.66,0,8.43,0,.13,0,.3.21.36.35a1.75,1.75,0,0,1,0,.56v47.15H219v6.74l-.67,0q-12.34,0-24.68,0c-.57,0-.72-.16-.71-.73q0-26.7,0-53.41Z"/><path class="cls-1" d="M230.26,140.43a13.15,13.15,0,0,1,1.67,0c.18,0,.39.31.48.52.48,1.14.92,2.3,1.38,3.45.05.14.12.27.24.53l.89-2.42c.21-.58.41-1.17.67-1.73a.72.72,0,0,1,.5-.36c.41-.05.83,0,1.24,0s.51.16.51.54c0,1.9,0,3.8,0,5.71,0,.36-.1.52-.48.5s-.59,0-1,0V142.7l-.15,0a1.79,1.79,0,0,0-.19.32c-.47,1.24-.94,2.47-1.38,3.7a.62.62,0,0,1-.68.51c-.37,0-.56-.08-.7-.46-.47-1.35-1-2.68-1.5-4a.68.68,0,0,0-.27-.35v4.76h-1.27Z"/><path class="cls-1" d="M163.48,22.7a17.2,17.2,0,0,0-3.66-5.87l.1-.2a6.59,6.59,0,0,1,2.47-.17,3.75,3.75,0,0,1,2.06,1.75A3.22,3.22,0,0,1,163.48,22.7Z"/><path class="cls-1" d="M228.64,140.47c0,.12.05.21.06.3.06.8,0,.84-.76.84h-1.13v5.54a7.85,7.85,0,0,1-1.2,0c-.12,0-.28-.31-.29-.47,0-1.51,0-3,0-4.52,0-.4-.07-.61-.52-.53a3.62,3.62,0,0,1-.57,0c-1,0-1,0-.85-1.14Z"/></g></g></svg>