<svg xmlns="http://www.w3.org/2000/svg" viewBox="0 0 1198.69 241.26"><defs><style>.cls-1{fill:#fff;}</style></defs><g id="Layer_2" data-name="Layer 2"><g id="Layer_1-2" data-name="Layer 1"><path class="cls-1" d="M1198.69,216.19c-8.39,18.66-23.18,26.37-45.23,23.57-7.66-1-15.06-2.74-21.38-7.48-7.54-5.65-11.3-13.19-11.45-23h17.42c5.22,14.61,23.36,20.24,36.29,11.29,8.2-5.68,7.76-16.2-1.33-20.29-6-2.7-12.62-4-18.92-6-5.51-1.79-11.17-3.31-16.4-5.75-20-9.31-18.11-33.33-3.41-44,13.24-9.63,36.47-10.45,50.08-1.37,7.77,5.17,12.53,12.17,12.73,22.5-5.26,0-10.37.15-15.46-.12-1-.06-2.32-1.61-2.73-2.75-2.41-6.66-7.72-9.43-14.13-10.19-7.58-.89-15.19-.68-20.61,5.92-4.26,5.2-3.12,12.57,3,15.77,5.22,2.72,11.12,4.15,16.78,6,3.47,1.13,7.08,1.82,10.57,2.88,11.58,3.52,20.61,9.86,24.14,22.12Z"/><path class="cls-1" d="M244.45,239.12V.5H453V38.72H286.09v61.72h134V139H286.27v63.47H453.06v38.62h-5.21q-124.64,0-249.27.08c-3.56,0-5.68-1.17-7.86-3.88Q117.81,146.58,44.7,56c-.82-1-1.69-2-3.47-4V240.72H0V.08H5.65C19.47.08,33.29.17,47.11,0a8,8,0,0,1,7.13,3.36q92.52,114.9,185.21,229.7C240.79,234.73,242.18,236.37,244.45,239.12Z"/><path class="cls-1" d="M503.62.2h6.26c13.82,0,27.64.17,41.46-.1a11.19,11.19,0,0,1,10,4.71c20.92,26.23,42,52.31,63.12,78.42.93,1.16,1.93,2.25,3.26,3.78,6.59-8.16,13-16.11,19.46-24.08C663,43.4,678.75,23.91,694.4,4.31A9,9,0,0,1,702.33.42c14.48.18,29,0,43.45,0,1.6,0,3.19.16,5.74.29L654.82,120.8l96.7,119.92c-1.75.18-2.8.39-3.85.39-15.49,0-31,.13-46.45-.12a9.08,9.08,0,0,1-6.1-3q-94-116.28-187.75-232.74C506.27,3.91,505.29,2.46,503.62.2Z"/><path class="cls-1" d="M922.91,240.82H881.24v-202h-84V.45h208.2V38.51H922.91Z"/><path class="cls-1" d="M503.84,240.58,586,138.67l27.16,33.66L584.37,208.1c-8.12,10.08-16.19,20.21-24.43,30.2-1.12,1.35-3.11,2.82-4.71,2.84-16.47.19-32.94.1-49.41.07A9.29,9.29,0,0,1,503.84,240.58Z"/><path class="cls-1" d="M1085.68,138.4h18.21v4.85c0,21.08-.13,42.15,0,63.22.11,12.52-3.41,23.25-15.12,29.2-12.52,6.36-25.5,6.09-37.69-1.13-8-4.75-11.79-12.33-11.44-22.18h17.73c1,6.83,4.74,11.49,12.21,12.5s13.58-2.88,15.2-10.33a40.63,40.63,0,0,0,.81-8.38c.07-20.58,0-41.16,0-61.73Z"/><path class="cls-1" d="M1015,239.49a10.66,10.66,0,1,1-.1-21.3,10.65,10.65,0,1,1,.1,21.3Z"/></g></g></svg>