<svg xmlns="http://www.w3.org/2000/svg" viewBox="0 0 512 352"><defs><style>.cls-1{fill:#fff;}</style></defs><g id="Layer_2" data-name="Layer 2"><g id="Layer_1-2" data-name="Layer 1"><path class="cls-1" d="M95,0h10c9.59,2.56,18.17,7.18,21.73,16.73,2.53,6.77,6.81,10.17,13,12.4a28.34,28.34,0,0,1,3.58,1.77c22.33,11.87,42.52,26.86,62.05,42.77,2.77,2.25,5.11,2.9,8.57,1.57,26.79-10.27,53.48-9.61,79.8,1.61,4.39,1.88,7.1,1.27,10.66-1.63,22.63-18.45,45.83-36.1,72.56-48.4,2.77-1.28,3.73-3.57,4.88-6,5.58-11.73,18.05-19.2,29.38-17.56,10.71,1.55,18.76,6.92,22.8,17.14,4.2,10.63,1.66,20.3-5.43,28.91-1.6,1.94-3.3,3.73-3.94,6.26-3.84,15.17-10.86,29-18.6,42.42-7,12.17-7,11.83,7.1,14.9,24.66,5.37,48.65,12.81,70.71,25.48,9.16,5.26,17.63,11.35,23.38,20.59,2.33,3.75,2.44,8.32,4.8,12v11c-4.18,8.76-9.07,17-16.57,23.43-17.07,14.7-37.73,22.16-58.72,28.72a398.55,398.55,0,0,1-63.24,14c-4.21.59-4.65,1.88-2.37,5.33,4.87,7.35,9.46,14.88,14.08,22.39a7,7,0,0,0,6,3.74c10.81.9,18.32,6.68,22.34,16.6s1.59,18.91-5.66,26.63c-1.42,1.51-2.55,3-2.5,5.21.25,12.33-4.95,20.73-17.33,23.92H373a164.18,164.18,0,0,1-34.27-14.83c-25.85-15-49.62-32.94-72.22-52.46-7.61-6.57-13.47-6.59-21-.13-10.37,8.87-20.88,17.6-31.92,25.63-23.46,17.05-47,33.92-75.57,41.79H124c-11.48-2.34-16.56-10.17-18-21.07a7.64,7.64,0,0,0-2.14-4.89c-7.81-7.57-10.36-16.6-6.48-26.87,3.8-10.07,11.45-15.71,22.06-17.16,2.84-.38,4.41-1.86,5.76-4.13,4-6.71,8-13.43,12.27-20,6-9.36,6-9-4.86-10.68-29.84-4.7-59.11-11.66-86.88-23.87C26,214.63,8.28,203.48,0,182V170c2.72-7,5.14-14,10.93-19.32,9.2-8.46,19.89-14.42,31.11-19.62,20.68-9.58,42.57-15.22,64.69-20.14,5.76-1.28,5.74-1.29,2.66-6.58-8.55-14.68-16.88-29.5-21.53-46a26,26,0,0,0-6.51-11.43C68.77,33.76,71,13.38,86,4.15,88.75,2.41,92,1.37,95,0Zm25,119c2,1.4,2.94,3.58,4.28,5.47,6.63,9.4,12.95,19,20.31,27.86C129,122,104.92,96.33,97.84,61.51c-2.39,1.29-1,3.35-2.77,3.84-1.47-.54-1.71-2-2.13-3.17-2.63-7.47-4-15.1-2.57-23,.21-1.24,1.07-3.15-.48-3.51-2-.47-2,1.84-2.2,3.14-1.08,6.39.23,12.59,1.93,18.7,4,14.37,10.77,27.52,18.2,40.36,4.08,7,8.12,14.11,12.18,21.17-2.24-1.1-4.53-.71-6.84-.24a298.58,298.58,0,0,0-56.44,16.73c-12.35,5.14-24.31,11-33.67,21-1.82,1.95-3.73,3.89-4,6.8,5.75-5.66,11.61-11,18.47-15.24,17.67-10.84,37.11-17.12,56.93-22.54C102.9,123.19,111.72,122.16,120,119Zm373.72,55.69c.52-4.78-1.76-8.42-4.68-11.75a71.56,71.56,0,0,0-18.17-14.72c-23.56-13.7-49.69-19.76-75.89-25.63-2.74-.61-4.33.67-5.77,2.82-8.95,13.47-18.63,26.41-28.54,39.19-1.34,1.72-2.48,3.49-2.47,5.84a115,115,0,0,1-9.56,47.13c-1.94,4.43,4.66,12.46,9.44,11.79,28.07-3.89,56-8.64,82.93-17.74,15.85-5.35,31.25-11.7,44.32-22.47C489.82,185.46,494.26,181.39,493.72,174.69ZM18,174.31c.18,6.36,2.43,10.12,8.92,15.37C37.78,198.5,50.37,204.2,63.34,209c29.21,10.84,59.71,16.11,90.43,20.33,4.24.59,5.91-1.73,4.28-5.65-.32-.77-.73-1.5-1.1-2.24-9.13-18.53-13-38-10.51-58.62a9.2,9.2,0,0,0-1.93-7c-7.24-10-14.5-19.92-21.54-30-2.16-3.09-4.44-3.72-8-2.92-12.52,2.8-25,5.78-37.23,9.58-17.41,5.41-34.35,12-48.49,23.92C23.7,161.07,17.74,165.88,18,174.31Zm334.33,77c-10.4,1.12-20,2.14-29.6,3.19-1.91.21-3.35,1.34-4.81,2.48-9.12,7.14-18.95,13-30,16.67-4.25,1.4-3.42,2.69-.64,5,10.64,8.85,21.35,17.61,32.58,25.69,15.29,11,30.79,21.71,48.54,28.57a57.76,57.76,0,0,0,15.53,3.58c3.21.3,5.79-1,6.33-4.3s-2.63-2.83-4.5-3.28c-20.8-5.07-26.81-29.81-13.05-42.67,1.71-1.61,2.05-3.16.84-5.28-5.3-9.27-10.86-18.36-16.89-27.16C355.38,252,353.71,251.12,352.29,251.31ZM126.76,336.54c10-.55,18.56-3.86,26.76-8,25.4-13,47.62-30.51,69.45-48.6,2.66-2.21,2.14-3.18-1-4.09-12.26-3.61-23.83-8.89-33.67-17-5.43-4.47-11.27-6-17.83-6.47-3-.22-6-.37-8.94-.85-3.4-.55-5.63.6-7.52,3.49q-8.61,13.17-16.52,26.78c-1.72,2.95-1.54,4.74.9,7.28,13.51,14.05,6.89,36.91-12,42.06-1.61.43-4.4-.08-4.11,2.51S125.21,336.43,126.76,336.54ZM379.34,106.06c1.05,0,1.46,0,2.76-2,8.45-12.79,16.3-25.9,22.17-40.12,1.23-3,.42-4.14-2.69-4.73-8.89-1.67-15.69-6.5-19.53-14.73-2-4.23-4.14-4.1-7.77-2.24a292.7,292.7,0,0,0-35.65,22c-8.53,6.09-16.76,12.59-25.09,19-1.4,1.07-3.31,2.16-.76,4.17,8.8,6.89,16.72,15.45,29.48,14.29,2.44-.22,5,.37,7.44.68C359.27,103.52,368.84,104.74,379.34,106.06Zm-244.5-.41,37-4.49a9.37,9.37,0,0,0,5.75-2.65,96,96,0,0,1,15.88-12.85c3.12-2,3.34-3.7.27-6-7.25-5.3-14.31-10.87-21.64-16.07A264.41,264.41,0,0,0,133.17,40.3c-2.45-1.16-4.46-2-6.11,1.35a26.18,26.18,0,0,1-17.84,14.07c-3.63.92-4,2.63-2.75,5.75,6,14.9,14,28.7,22.74,42.07C130.44,105.4,131.87,106.49,134.84,105.65Zm62.15,147c-19.52-2.12-38.84-5.21-58.14-9.07-21.73-4.36-43.55-8.19-64.72-14.83-20.08-6.3-39.72-13.72-56.36-27.2A35.27,35.27,0,0,1,5.48,183.87c-1.26-4.15.13-8.93-3-12.74-1.41,2.19-1.07,4.37-.87,6.5,1,10.52,7.41,18,14.43,25,11.26,11.16,25.58,17.3,40,23,19.72,7.77,40,13.65,61.17,16,14.54,1.64,28.43,6.65,43,7.87C172.48,250.49,184.59,253.15,197,252.64ZM343.58,114.4c-2.65-.21-3.8.47-2.15,3a104.86,104.86,0,0,1,11,22.81c1.18,3.39,2.55,2.18,4,.24,4.61-6.28,9.15-12.62,13.85-18.84,2-2.62.78-3.4-1.72-3.75Zm23.87,38.11c.71-.86,1.47-1.67,2.11-2.57,6-8.4,12.22-16.65,17.81-25.31,2.54-3.93,5.19-5,9.48-3.84,4.81,1.31,9.72,2.26,14.58,3.39,10.95,2.57,21.7,5.86,32.52,9-2.85-2-5.68-3.93-9.1-4.79-12.72-3.19-25.12-7.66-38.15-9.57-3.83-.57-4.21-1.77-2.15-5a298.87,298.87,0,0,0,20.19-36.71c1.76-3.9,3.09-8,4.61-12l-2-.93C404.31,95.68,384.25,123.11,367.45,152.51ZM161.52,115.35c-6.94,1-12.53,1.73-18.12,2.53-2.52.35-3.74,1.27-1.81,3.83,3,4,5.93,8,8.82,12.11,1.37,1.94,2.43,2.1,3.42-.27a103.61,103.61,0,0,1,8-15.51C163,116.09,162.33,115.29,161.52,115.35Zm240.2,124c11,.66,51.1-11.21,58.55-17.34C440.56,229.19,421.51,235.54,401.72,239.35Z"/></g></g></svg>