<svg xmlns="http://www.w3.org/2000/svg" viewBox="0 0 426.62 429.32"><defs><style>.cls-1{fill:#fff;}</style></defs><g id="Layer_2" data-name="Layer 2"><g id="Layer_1-2" data-name="Layer 1"><path class="cls-1" d="M378.88,0c4.41,13.13,8.5,25.57,12.76,38,11.52,33.51,21.49,67.43,28.08,102.3,5.74,30.4,8.34,61.1,6.1,91.87-3.37,46.5-20.52,87.74-51.16,123.14-34,39.3-76.78,63.69-128,71.35-64.5,9.65-122.5-6.49-172.39-49.06-39.54-33.73-63.78-76.7-71.5-127.92C-6.93,185.53,9,127.74,51,78,84.81,38,128,13.54,179.59,5.65c61.62-9.44,117.53,5.28,166.71,44.11,5.89,4.65,5.87,4.81,9.2-2,6.95-14.2,13.79-28.45,20.7-42.68C376.91,3.62,377.73,2.19,378.88,0Zm-2.33,57.6c-.61.25-1,.28-1.16.49-.52.85-1,1.75-1.42,2.63-9.51,18.12-22.75,33.19-38.41,46.14-35,29-75.29,43.49-120.73,44.54-14.41.33-28.89,1.2-43.18,3.74-23.45,4.17-44.81,13-62.24,29.49-27.87,26.33-39.13,58.76-33,96.73,2.45,15.27,8.78,28.88,20.35,39.69,6.91,6.45,14,9.73,24.13,6.85,18.51-5.3,37.45-9.12,56.09-14,27.77-7.23,54.87-16.26,79.49-31.49,35.21-21.79,65-49.14,86.71-84.7a212.84,212.84,0,0,0,13.31-26.44c1.1,1.6.53,2.66.25,3.72a192.52,192.52,0,0,1-11.18,31.45A234.68,234.68,0,0,1,305,267.34c-24.2,26.56-52,48.07-86.07,60.73-23.55,8.77-48,14.68-71.72,23-2.73,1-5.4,2.05-8.1,3.08a3.5,3.5,0,0,0,2.56.81c36.49,0,73,.18,109.46,0,19.81-.1,39.55-1.49,58.93-5.93,28.94-6.63,53.3-20.32,70-45.74,17.51-26.61,23.92-56.41,24.93-87.61,1.2-37.2-5.12-73.51-14.27-109.4C386.61,89.87,382,73.64,376.55,57.6ZM96.22,360a15.92,15.92,0,0,0,15.64,16.07c8.61.12,16.22-7.23,16.21-15.66A16.19,16.19,0,0,0,112,344.08,15.86,15.86,0,0,0,96.22,360Z"/></g></g></svg>