<?xml version="1.0" encoding="UTF-8"?>
<svg id="Layer_2" data-name="Layer 2" xmlns="http://www.w3.org/2000/svg" viewBox="0 0 1421.65 591.46">
  <defs>
    <style>
      .cls-1 {
        fill: #fff;
      }
    </style>
  </defs>
  <g id="Layer_1-2" data-name="Layer 1">
    <g>
      <path class="cls-1" d="m1110.18,309.93c.01-4.69,0-9.38,0-14.07-.11-1.98.26-3.98-.22-5.95-.08-1.19-.15-2.38-.23-3.58-.72-1.64.22-3.47-.58-5.11-.55-8.64-1.43-17.28-3.08-25.76-2.89-14.85-6.9-29.36-12.67-43.45-7.47-18.24-17.8-34.48-31.21-48.82-7.8-8.34-16.66-15.41-26.45-21.3-16.27-9.78-33.85-15.41-52.84-16.5-5.09-.51-10.17-.5-15.26-.01-26.82,1.18-49.43,12.31-69.64,30.22-1.33-8.62-3.77-16.26-4.66-24.22-.9-.94-2.05-.5-3.08-.5-26.92-.03-53.85-.03-80.78-.02-.94,0-1.93-.22-2.81.34-.42,1.3-.21,2.63-.21,3.94-.01,150.51-.01,301.02-.01,451.54,0,1.08-.08,2.16.05,3.24.14,1.14.84,1.33,1.81.93,11.41-2.38,22.81-4.73,34.21-7.14,10.27-2.17,20.52-4.43,30.79-6.61,10.49-2.22,20.99-4.38,31.49-6.57.88-1.04.44-2.28.45-3.42.05-5.59.02-11.18.02-16.77,0-7.22,0-14.44,0-21.67,0-7.92,0-15.84,0-23.76,0-7.61,0-15.21,0-22.82,0-6.61-.04-13.23.05-19.84.02-.95-.97-2.54,1.06-2.83,8.19,6.37,17.1,11.57,26.57,15.78,8.77,3.89,17.88,6.63,27.5,7.44,1.17.64,2.54-.11,3.71.54,1.41.08,2.82.16,4.23.23,4.83.33,9.66.4,14.48-.03.95-.07,1.9-.14,2.85-.22,1.19-.59,2.55.05,3.76-.48,2.23-.28,4.46-.34,6.71-.73,28.79-5.04,52.57-18.89,71.65-40.83,12.3-14.14,21.01-30.46,27.59-47.94,6.32-16.79,9.8-34.26,12.31-51.96.66-1.16-.11-2.54.57-3.7.28-4.31.56-8.61.84-12.91.79-1.64-.13-3.47.57-5.11.08-1.2.15-2.4.22-3.59.52-1.98.12-3.99.24-5.98Zm-97.66.95c-.06,1.67-.12,3.34-.19,5.01-.66,1.15.13,2.53-.58,3.67-1.94,21.4-7.48,41.59-21.5,58.43-10.36,12.43-23.66,19.07-40.34,18.84-17.27-.25-32.16-5.58-44.19-18.21-.78-1.07-.4-2.31-.4-3.46-.04-10.12-.02-20.23-.02-30.34v-85.17c0-8.24-.02-16.48.01-24.72,0-1.17-.26-2.39.29-3.52,9.38-10.86,21.3-16.7,35.54-17.97,1.88-.17,3.75-.54,5.62-.82,2.89-.4,5.79-.37,8.68-.02,19.13,2.29,32.24,13.04,41.92,29.11,7.38,12.24,10.95,25.68,13.54,39.47.98,5.23,1.13,10.62,1.65,15.93.36,4.59.41,9.18-.03,13.77Z"/>
      <path class="cls-1" d="m1421.16,317.07c-.15-7.86.3-15.73-.24-23.59-.08-1.9-.15-3.81-.23-5.71-.63-1.15.15-2.53-.57-3.67-.04-2.13-.08-4.26-.12-6.39-.66-1.17.07-2.54-.53-3.72-.75-4.9-1.52-9.8-2.23-14.7-2.39-16.45-6.89-32.35-13.23-47.65-6.62-16-15.33-30.75-26.88-43.91-12.19-13.89-26.59-24.55-43.37-31.93-13.59-5.99-28.04-9.02-42.8-10.47-1.52-.5-3.08-.14-4.61-.25h-14.67c-1.53.1-3.07-.22-4.59.22-5.39.71-10.8,1.3-16.18,2.21-28.02,4.75-51.86,17.57-71.86,37.49-14.03,13.97-24.71,30.31-32.78,48.45-9.63,21.63-15.34,44.17-17.06,67.75-.56,1.19.07,2.54-.48,3.73-.08,1.66-.17,3.32-.25,4.98-.47,1.54-.13,3.11-.23,4.67-.01,7.25,0,14.49,0,21.74.1,1.55-.24,3.12.23,4.65-.03,11.69,1.6,23.25,3.92,34.62,3.9,19.1,10.05,37.47,19.81,54.56,9.98,17.46,22.78,32.4,39,44.14,16.59,11.99,35.1,20.12,55.1,24.64,8.76,1.99,17.62,3.35,26.55,4.22,1.47-.38,2.93-.41,4.39.01,1.43.07,2.85.15,4.28.22,6.12.57,12.27.09,18.4.25,1.33-.09,2.68.21,3.99-.23,1.43-.08,2.87-.15,4.3-.23,1.27-.53,2.59-.15,3.88-.26,1.13-.1,2.28.22,3.38-.26,12.01-.57,23.73-2.88,35.4-5.61,17.44-4.07,33.95-10.55,49.7-19.02.56-.75.37-1.62.37-2.44.01-24.59.01-49.17,0-73.76,0-.82.23-1.7-.44-2.4-6.14,2.58-12.21,5.35-18.43,7.72-15.66,5.98-31.79,10.14-48.52,11.8-1.16.68-2.53-.05-3.7.53-.94.07-1.88.14-2.81.21-1.41.71-3.01-.15-4.42.57-1.66.06-3.33.12-5,.18-1.62.52-3.28.13-4.92.25-5.83-.17-11.67.35-17.49-.28-6.45.08-12.8-.81-19.03-2.32-15.87-3.86-29.41-11.36-38.59-25.44-6.22-9.54-9.37-20.05-10.02-31.37,1.3-.96,2.79-.47,4.18-.47,61.43-.03,122.86-.02,184.28-.05,1.39,0,2.89.5,4.18-.49.44-1.95.12-3.93.22-5.89.13-1.82-.28-3.67.25-5.47.08-1.45.16-2.9.23-4.36.52-2.47.11-4.98.24-7.47Zm-93.6-49.26c-19.71.23-39.42.07-59.13.09-13.82.01-27.64.11-41.45-.06-1.09-1.73-.63-3.56-.33-5.37-.8-3.66.3-7.17.89-10.71,2.31-13.95,8.22-26.02,19.08-35.31,7.51-6.44,16.3-10.1,26.19-11.03,3.18-.39,6.35-.45,9.53.03,16.7,1.49,28.86,9.85,36.92,24.39,4.6,8.3,7.2,17.19,7.78,26.68.09,1.51.53,3.01.8,4.51.27,2.28.67,4.56-.28,6.78Z"/>
      <path class="cls-1" d="m122.77,211.21c-6.5,1.03-12.78,2.38-17.72,7.38-7.36,7.44-6.05,21.58,2.59,28.14,8.75,6.65,18.77,10.63,28.98,14.29,15.59,5.59,31.52,10.29,46.68,17.02,15.97,7.09,31.15,15.55,43.27,28.53,11.39,12.19,18.83,26.37,21.88,42.87.99,5.37,1.96,10.72,2.12,16.18.5,4.6.48,9.21.01,13.81-1.04,22.24-7.84,42.43-22.01,59.78-11.71,14.34-26.65,24.29-43.66,31.48-12.43,5.25-25.35,8.63-38.53,10.96-5.58.99-11.28,1.97-17.05,1.74-1.34.46-2.73.13-4.1.23-1.53.12-3.09-.26-4.61.24-5.52,0-11.04,0-16.56,0-1.93-.54-3.91-.11-5.86-.25-1.18-.08-2.39.19-3.55-.22-1.41-.08-2.83-.16-4.24-.25-1.43-.64-3.02.14-4.44-.52-11.94-.72-23.59-3.13-35.23-5.8-14.86-3.41-29.26-8.18-43.31-14.04-.77-.32-1.46-.8-2.19-1.21-.72-1.1-.38-2.34-.38-3.51-.02-28.71-.03-57.42.04-86.12,0-1.17-1.13-3.02,1.13-3.6,16.81,9.09,34.36,16.38,52.64,21.93,11.95,3.63,24.04,6.61,36.51,7.83,1.03.1,2.05.39,3.07.59,1.46-.26,2.92-.34,4.37.05.95.08,1.91.15,2.86.23,4.34.46,8.67.4,13.01.02,7.49.03,14.55-1.79,21.2-5.14,6.78-3.42,9.52-9.54,10.64-16.64.41-1.44.42-2.88,0-4.32-1.51-9.33-7.82-14.82-15.32-19.5-10.38-6.49-21.94-10.24-33.31-14.35-16.27-5.88-32.57-11.7-47.89-19.78-16.64-8.77-31.39-19.89-41.37-36.29-5.49-9.01-8.99-18.8-10.88-29.2-.61-3.32-.56-6.64-.8-9.95-.37-5.09-.38-10.18,0-15.27.51-21.6,7.81-40.91,20.61-58.02,7.91-10.57,18.11-18.86,29.46-25.72,16.1-9.73,33.86-14.57,52.12-17.79,5.33-.94,10.86-.85,16.26-1.7,1.2-.36,2.41-.32,3.62-.03.7.04,1.4.07,2.1.11,5.65-.68,11.32-.12,16.97-.3,1.75,0,3.5,0,5.25,0,1.27.09,2.57-.21,3.82.23l2.87.23c1.15.65,2.53-.13,3.68.57,9.83.58,19.54,1.99,29.2,3.85,15.17,2.94,29.89,7.46,44.33,12.92.59.87.35,1.86.35,2.8.01,28.89.01,57.78,0,86.67,0,.94.24,1.93-.35,2.8-9.51-4.3-18.92-8.79-28.88-12.06-10.96-3.6-22.02-6.76-33.35-8.92-7.55-1.44-15.17-2.44-22.85-2.94-1.4-.75-3,.06-4.42-.54-5.01,0-10.02,0-15.03,0-1.19.56-2.55-.15-3.73.52Z"/>
      <path class="cls-1" d="m366.83,362.05c1.62,20.12,12.4,32.11,32,35.32,1.52.25,3.1.12,4.66.17,2.4.42,4.8.4,7.2.01,9.39-.14,18.32-2.59,27.18-5.41.77-.25,1.59-.34,2.39-.51,1.41-.05,1.07,1.04,1.07,1.78,0,25.68.06,51.36-.03,77.04,0,.22-.17.44-.26.67-6.65,3.69-13.84,5.91-21.16,7.82-7.53,1.97-15.23,3.04-22.9,4.23-2.35.36-4.78.16-7.17.22-1.38.47-2.81.14-4.21.24-1.98.14-3.98-.3-5.94.26-4.55,0-9.09,0-13.64.01-1.66-.7-3.49.15-5.15-.53-21.48-1.83-40.3-9.96-56.67-23.93-17.03-14.53-26.93-33.23-31.88-54.73-1.19-5.16-1.97-10.52-1.71-15.91-.52-4.88-.19-9.78-.22-14.67-.05-12.91-.02-25.81-.02-38.72,0-18.28,0-36.56,0-54.84,0-21.88,0-43.76,0-65.65,0-20.83,0-41.65.01-62.48,0-1.31-.21-2.63.22-3.92.05-25.83.18-51.67.05-77.5-.02-3.49.97-4.86,4.36-5.55,16.81-3.44,33.56-7.14,50.34-10.7,13.74-2.91,27.5-5.76,41.25-8.63.98,5.49.16,11.03.43,16.55,0,7.69,0,15.38,0,23.07-.15,9.86.3,19.72-.23,29.57-.01,5.26-.03,10.52-.04,15.78,1.19.89,2.55.44,3.83.44,22.19.03,44.37.02,66.56.04,1.3,0,2.64-.25,3.91.26.43.78.28,1.64.28,2.47,0,26.12,0,52.25,0,78.37,0,.94.24,1.93-.35,2.8-23.43.04-46.87.15-70.3.03-3.35-.02-4.09.92-4.08,4.15.11,44.58.07,89.17.08,133.75,0,1.2.07,2.4.11,3.6.39,1.67.33,3.35.04,5.03Z"/>
      <path class="cls-1" d="m557.85,131.95c2.07,9.29,4.15,18.57,6.4,28.64,10.79-18.37,25.89-29.84,46.97-32.38,1.18-.59,2.54.13,3.71-.53,4.29,0,8.58,0,12.88.01,1.18.63,2.53-.04,3.72.5,4.8.97,9.66,1.65,14.32,3.23.66.85.39,1.85.39,2.79.01,28.09.02,56.18,0,84.28,0,1.24.52,2.72-1.06,3.52-5.19-1.45-10.56-1.95-15.85-2.88-3.86-.46-7.72-.45-11.58,0-.71.07-1.41.13-2.12.2-1.17.61-2.54-.16-3.69.56-16.55,2.37-30.36,9.52-40.45,23.16-.52,1.4-.25,2.86-.26,4.28-.01,75.06-.01,150.12-.03,225.18,0,1.43.24,2.88-.23,4.29-.89.53-1.88.32-2.82.32-30.75.01-61.5,0-92.25,0-.83,0-1.69.12-2.48-.25-.58-1.27-.29-2.61-.29-3.91-.02-112.37-.01-224.73,0-337.1,0-1.31-.2-2.64.21-3.94.88-.56,1.87-.34,2.81-.34,26.3-.01,52.61-.01,78.91,0,.94,0,1.93-.25,2.8.37Z"/>
      <path class="cls-1" d="m671.21,20.99c8.55-1.82,17.09-3.67,25.64-5.46,13.61-2.84,27.24-5.6,40.85-8.46,10.05-2.11,20.07-4.34,30.11-6.51.78-.39,1.48-.25,1.73.59.24.8.1,1.67.1,2.51,0,24.49,0,48.99-.01,73.48,0,.93.27,1.93-.4,2.78-4.51,1.89-9.39,2.38-14.08,3.55-8.35,2.08-16.84,3.62-25.28,5.38-11.23,2.34-22.46,4.64-33.68,7.04-7.03,1.51-14.03,3.19-21.04,4.77-.81.18-1.66.19-2.49.27-.77.42-1.47.3-1.74-.54-.25-.79-.11-1.67-.11-2.51,0-24.71,0-49.41.01-74.12,0-.93-.27-1.93.39-2.78Z"/>
      <path class="cls-1" d="m806.86,131.3c-.02,1.2-.06,2.4-.06,3.6,0,150.47,0,300.93.06,451.4,0,1.51-1.28,3.77,1.45,4.54-.9.84-1.76.92-2.14-.4-.22-.78-.1-1.67-.1-2.51,0-152.21.01-304.43.02-456.64.26-.35.51-.35.76,0Z"/>
      <path class="cls-1" d="m670.56,131.99c.84-1.32,2.18-.76,3.29-.76,30.78-.03,61.56.01,92.35-.09,2.96,0,3.87.77,3.87,3.81-.07,112.78-.06,225.56-.08,338.33,0,1.27.44,2.68-.76,3.73-.34-.35-.6-.76-.76-1.22-.58-2.49-.35-5.03-.35-7.54-.01-109.16,0-218.33-.01-327.49,0-8.27.38-7.66-7.62-7.67-27.65-.02-55.31,0-82.96-.01-1.92,0-3.85.16-5.75-.33-.46-.17-.86-.43-1.22-.76Z"/>
      <path class="cls-1" d="m473.5,132.01c-.01,44.7-.04,89.41-.04,134.11,0,70.18.02,140.36.02,210.54-.23.36-.47.38-.71,0-.01-41.82-.03-83.65-.04-125.47,0-71.51,0-143.02,0-214.52,0-1.56.07-3.12.11-4.68.22-.34.44-.34.65.02Z"/>
      <path class="cls-1" d="m670.56,131.99c.22-.01.43,0,.65.02,1.49,1.74,1.1,3.87,1.1,5.87.04,15.5.02,31,.02,46.51,0,94.94,0,189.87-.02,284.81,0,2.38.37,4.82-.65,7.12-.29.49-.68.6-1.19.35-.01-28.84-.04-57.69-.04-86.53,0-84.49,0-168.98,0-253.47,0-1.56.08-3.12.12-4.68Z"/>
      <path class="cls-1" d="m570.85,476.66c0-76.37,0-152.74.04-229.1,0-1.5-.55-3.13.59-4.51.03.36.09.72.09,1.08,0,77.52-.02,155.03-.03,232.55-.24.35-.47.37-.7-.01Z"/>
      <path class="cls-1" d="m1227.58,341.26c1.17-1.61,2.87-.8,4.3-.8,61.28-.05,122.56-.03,183.84-.07,1.49,0,3.14.61,4.47-.66.14-.33.31-.37.53-.07-.34,2.35-2.21,1.43-3.42,1.43-13.83.07-27.65.04-41.48.04-47.85,0-95.7,0-143.55,0-1.56,0-3.12.07-4.68.11Z"/>
      <path class="cls-1" d="m670.48,476.67c.24,0,.48,0,.72,0,1.42-1.19,3.14-1.04,4.81-1.04,29.48-.02,58.96-.02,88.44,0,1.66,0,3.39-.14,4.81,1.04,0,0-.02.35-.02.35-1.2.85-2.57.47-3.85.47-30.29.02-60.59.03-90.88-.01-1.35,0-2.92.65-4.02-.8Z"/>
      <path class="cls-1" d="m570.85,476.66c.23.08.46.08.7.01-.97,1.37-2.42.8-3.65.8-30.49.03-60.98.03-91.47,0-1.23,0-2.68.57-3.65-.81.24.07.47.07.71,0,28.73.04,57.46.08,86.19.11,3.72,0,7.45-.07,11.17-.11Z"/>
      <path class="cls-1" d="m6.03,368.34c-1.17.88-.83,2.17-.83,3.32,0,29.97.02,59.94.03,89.91-1.31-.85-.74-2.19-.74-3.29-.03-29.09-.04-58.19.04-87.28,0-.89-1.32-3.12,1.5-2.66Z"/>
      <path class="cls-1" d="m231.02,235.15c0-30.76,0-61.51,0-92.27,1.26.72.71,1.93.71,2.91.03,29.07.03,58.13.02,87.2,0,.71-.1,1.42-.18,2.13,0,.06-.14.16-.22.16-.11,0-.22-.09-.33-.13Z"/>
      <path class="cls-1" d="m645.18,222c.73-1.05.73-2.24.73-3.45-.03-29.04-.04-58.09-.06-87.13,1.34.83.74,2.17.74,3.27.04,28.03.05,56.06-.04,84.1,0,1.05,1.28,3.13-1.38,3.22Z"/>
      <path class="cls-1" d="m806.86,131.3c-.25,0-.51,0-.76-.01.99-1.33,2.43-.79,3.67-.79,26.65-.03,53.31-.03,79.96,0,1.23,0,2.69-.58,3.61.87-7.81-.06-15.61-.17-23.42-.16-21.02,0-42.04.06-63.07.09Z"/>
      <path class="cls-1" d="m473.5,132.01l-.32-.03s-.33.02-.33.02c.7-1.24,1.91-.77,2.91-.77,26.38-.03,52.77-.03,79.15,0,1.01,0,2.2-.45,2.94.73-28.12.02-56.24.04-84.35.06Z"/>
      <path class="cls-1" d="m440.98,215.49c0-27.83,0-55.65,0-83.48.21-.36.42-.34.64-.01.03,27.24.06,54.48.08,81.71,0,.65.26,1.48-.72,1.78Z"/>
      <path class="cls-1" d="m671.21,20.99c-.02,25.61-.04,51.21-.04,76.82,0,1.22-.51,2.8,1.48,3.12-.86.76-1.74,1.05-2.13-.35-.22-.78-.08-1.67-.08-2.51,0-24.61-.01-49.22.03-73.83,0-1.09-.62-2.43.74-3.26Z"/>
      <path class="cls-1" d="m769.22,79.92c.02-25.54.04-51.09.06-76.63,0-1.16.3-2.52-1.47-2.73.93-.72,1.8-.92,2.12.51.18.8.08,1.67.08,2.51,0,24.24.01,48.47-.03,72.71,0,1.21.65,2.67-.75,3.63Z"/>
      <path class="cls-1" d="m441.04,471.11c-.02-25.13-.02-50.26-.07-75.39,0-1.37.55-2.91-.71-4.09.49-.36,1.1-.83,1.35.1.21.79.11,1.67.11,2.51,0,24.51.01,49.02-.02,73.53,0,1.12.54,2.42-.65,3.34Z"/>
      <path class="cls-1" d="m1400.58,458.01c-.02-26.2-.05-52.4-.07-78.6,1.35.98.79,2.42.79,3.66.03,23.74.03,47.49,0,71.23,0,1.25.51,2.67-.72,3.71Z"/>
      <path class="cls-1" d="m441.62,132l-.32-.03s-.32.04-.32.04c-23.42-.03-46.83-.05-70.25-.13-1.32,0-2.91.73-3.98-.78,23.63.03,47.26.05,70.89.13,1.32,0,2.9-.74,3.98.76Z"/>
      <path class="cls-1" d="m270.59,148.53c0,22.11,0,44.23,0,66.34-.17.34-.37.35-.58.04,0-21.1-.01-42.2,0-63.3,0-1.05-.29-2.18.59-3.08Z"/>
      <path class="cls-1" d="m270.01,214.91c.19-.01.39-.02.58-.04,0,21.88,0,43.77,0,65.65-.16.33-.35.36-.56.04,0-21.89-.02-43.77-.03-65.66Z"/>
      <path class="cls-1" d="m270.04,280.57c.19-.01.37-.03.56-.04,0,18.28,0,36.56,0,54.84-.16.33-.34.35-.54.03,0-18.28-.02-36.55-.02-54.83Z"/>
      <path class="cls-1" d="m270.06,335.39c.18-.01.36-.02.54-.03,0,17.81,0,35.63,0,53.44-.8-.92-.58-2.04-.58-3.1,0-16.77.03-33.54.04-50.32Z"/>
      <path class="cls-1" d="m366.79,115.33c0-9.85,0-19.7,0-29.55.15-.34.33-.38.56-.07.01,8.97.03,17.93.03,26.9,0,.94.18,1.93-.58,2.72Z"/>
      <path class="cls-1" d="m1420.93,317.4c0-7.97,0-15.95,0-23.92,1.28,4.19.43,8.49.61,12.73.15,3.68-.02,7.38-.05,11.07-.12.33-.31.35-.55.12Z"/>
      <path class="cls-1" d="m905.01,481.85c-.02-6.82-.08-13.64-.02-20.46,0-.72-1-2.71,1.39-1.98-1.31,1.16-.67,2.7-.69,4.06-.11,6.11-.11,12.23-.15,18.34-.15.33-.33.36-.53.05Z"/>
      <path class="cls-1" d="m905.04,528.75c0-7.93,0-15.87,0-23.8.15-.34.33-.36.53-.05,0,7.94.02,15.87.03,23.81-.16.33-.34.35-.55.05Z"/>
      <path class="cls-1" d="m367.34,85.71c-.19.02-.37.05-.56.07,0-7.7,0-15.4-.01-23.09.15-.34.33-.35.53-.05.01,7.69.02,15.38.03,23.08Z"/>
      <path class="cls-1" d="m905.56,504.89c-.18.02-.36.03-.53.05,0-7.7-.01-15.39-.02-23.09.18-.02.36-.03.53-.05,0,7.7.01,15.39.02,23.09Z"/>
      <path class="cls-1" d="m1128.51,294.18c0,7.5,0,15,0,22.5-.26.24-.44.21-.54-.15,0-7.4,0-14.81,0-22.21.1-.34.28-.39.54-.14Z"/>
      <path class="cls-1" d="m905.04,528.75c.18-.01.37-.03.55-.05,0,7.22.02,14.43.03,21.65-.17.34-.36.33-.57.03,0-7.21,0-14.43,0-21.64Z"/>
      <path class="cls-1" d="m905.04,550.39c.19-.01.38-.02.57-.03,0,5.75.03,11.5.01,17.25,0,1.03.35,2.21-.82,2.93.08-6.72.16-13.43.24-20.15Z"/>
      <path class="cls-1" d="m1281.53,483.38c6.28,0,12.55.02,18.83.03.2.15.25.28.17.4-.08.11-.16.16-.24.16-6.25-.24-12.54.74-18.76-.59Z"/>
      <path class="cls-1" d="m1313.25,400.97c-6.01-.21-12.06.81-18.03-.57,6.05,0,12.09.01,18.14.02.19.16.23.3.14.41-.08.09-.16.14-.25.14Z"/>
      <path class="cls-1" d="m142.34,125.35c-5.81.01-11.62.02-17.43.03,5.74-1.42,11.55-.45,17.33-.57.25.08.34.19.29.32-.06.15-.12.22-.19.22Z"/>
      <path class="cls-1" d="m367.31,62.64c-.18.02-.36.03-.53.05-.06-5.52-.12-11.03-.18-16.55,1.6,1.6.69,3.59.76,5.39.13,3.7-.01,7.41-.04,11.11Z"/>
      <path class="cls-1" d="m1286.68,125.35c-5.1,0-10.21,0-15.31-.01-.17-.18-.2-.31-.1-.42.08-.08.17-.12.25-.12,5,0,10,.01,15,.02.25.06.35.15.32.29-.04.16-.09.24-.16.24Z"/>
      <path class="cls-1" d="m.75,228.54c0,5.09,0,10.18,0,15.27-1-5.09-.98-10.18,0-15.27Z"/>
      <path class="cls-1" d="m982.9,125.38c-5.09,0-10.17,0-15.26,0,5.09-1.06,10.17-1.16,15.26,0Z"/>
      <path class="cls-1" d="m1109.94,310.16c0-4.84,0-9.67,0-14.51.23-.28.41-.26.54.08,0,4.78,0,9.56,0,14.34-.13.34-.31.37-.54.09Z"/>
      <path class="cls-1" d="m968.39,483.41c4.83,0,9.65-.02,14.48-.03-4.82,1.02-9.65,1-14.48.03Z"/>
      <path class="cls-1" d="m250.57,379.44c0-4.6,0-9.21-.01-13.81,1.11,4.6,1.12,9.21.01,13.81Z"/>
      <path class="cls-1" d="m118.49,398.99c-4.34.99-8.68.96-13.01-.02,4.34,0,8.67.02,13.01.02Z"/>
      <path class="cls-1" d="m617.74,219.12c3.86-1,7.72-1.01,11.58,0-3.86,0-7.72,0-11.58,0Z"/>
      <path class="cls-1" d="m1420.93,317.4c.18-.04.37-.08.55-.12-.15,2.42.64,4.92-.56,7.26,0-2.38,0-4.76,0-7.14Z"/>
      <path class="cls-1" d="m410.68,397.55c-2.4.96-4.8.96-7.2-.01,2.4,0,4.8,0,7.2.01Z"/>
      <path class="cls-1" d="m98.19,483.37c1.97.02,3.99-.59,5.87.51-1.9.01-3.81.02-5.71.03-.24-.06-.34-.16-.31-.3.04-.16.09-.24.15-.24Z"/>
      <path class="cls-1" d="m379.65,483.88c1.86-1.15,3.88-.45,5.84-.55.2.17.24.31.14.42-.08.08-.17.13-.27.13-1.9,0-3.81,0-5.71,0Z"/>
      <path class="cls-1" d="m1110.48,295.74c-.18-.03-.36-.05-.54-.08,0-1.92.01-3.83.02-5.75,1.13,1.86.45,3.88.52,5.83Z"/>
      <path class="cls-1" d="m1109.94,310.16c.18-.03.36-.06.54-.09-.07,1.95.62,3.98-.54,5.83,0-1.91,0-3.83,0-5.74Z"/>
      <path class="cls-1" d="m1420.71,339.67c-.18.02-.36.04-.53.07-.01-1.92-.03-3.84-.04-5.76.14-.33.33-.37.57-.08,0,1.93,0,3.85.01,5.78Z"/>
      <path class="cls-1" d="m366.83,362.05c-.01-1.68-.03-3.35-.04-5.03.91,1.67.93,3.34.04,5.03Z"/>
      <path class="cls-1" d="m142.34,125.35c-.03-.18-.07-.36-.1-.54,1.68-.02,3.36-.03,5.05-.05.23.08.33.19.28.33-.05.15-.11.22-.18.22l-5.05.04Z"/>
      <path class="cls-1" d="m1109.73,286.33c-1.1-1.6-.5-3.4-.58-5.11,1.13,1.6.61,3.38.58,5.11Z"/>
      <path class="cls-1" d="m1109.15,324.6c.1-1.71-.54-3.51.57-5.11.01,1.73.59,3.52-.57,5.11Z"/>
      <path class="cls-1" d="m360.86,483.36c1.74-.07,3.52-.44,5.15.53-1.75.1-3.53.52-5.15-.53Z"/>
      <path class="cls-1" d="m1420.7,333.89c-.19.03-.38.05-.57.08.14-1.7-.58-3.49.56-5.08,0,1.67,0,3.33,0,5Z"/>
      <path class="cls-1" d="m141.53,210.69c1.51-.09,3.06-.57,4.42.54-1.49-.03-3.04.45-4.42-.54Z"/>
      <path class="cls-1" d="m1127.97,316.54c.18.05.36.1.54.15-.01,1.43-.02,2.86-.03,4.28-1.01-1.38-.55-2.93-.51-4.43Z"/>
      <path class="cls-1" d="m1286.68,125.35c-.05-.18-.1-.36-.16-.54,1.51-.07,3.05-.5,4.43.51-1.43,0-2.85.01-4.28.02Z"/>
      <path class="cls-1" d="m150.33,372.89c.94,1.44.93,2.88,0,4.32,0-1.44,0-2.88,0-4.32Z"/>
      <path class="cls-1" d="m1271.52,124.8c-.05.18-.1.36-.15.54-1.43-.01-2.85-.02-4.28-.04,1.38-.99,2.93-.56,4.43-.5Z"/>
      <path class="cls-1" d="m1327.05,399.67c-1.37,1.01-2.92.59-4.42.57,1.36-1.07,2.91-.61,4.42-.57Z"/>
      <path class="cls-1" d="m1128.51,294.18c-.18.05-.36.09-.54.14-.03-1.5-.5-3.04.51-4.42.01,1.43.02,2.85.03,4.28Z"/>
      <path class="cls-1" d="m1313.25,400.97c.04-.18.07-.37.11-.55,1.43,0,2.85,0,4.28,0-1.35,1.06-2.91.48-4.39.54Z"/>
      <path class="cls-1" d="m85.97,482.63c1.51-.09,3.05-.4,4.44.52-1.52.13-3.06.46-4.44-.52Z"/>
      <path class="cls-1" d="m1272.86,483.14c1.47-1.01,2.93-.8,4.39.01-1.46,0-2.93,0-4.39-.01Z"/>
      <path class="cls-1" d="m102.62,398.74c-1.46-.02-2.91-.03-4.37-.05,1.47-.98,2.92-.8,4.37.05Z"/>
      <path class="cls-1" d="m120.62,483.87c1.38-1.02,2.93-.52,4.42-.5.17.17.21.31.11.41-.08.08-.17.12-.25.12-1.43-.01-2.85-.03-4.28-.04Z"/>
      <path class="cls-1" d="m124.9,483.91c.05-.18.1-.36.14-.54,1.43,0,2.85.02,4.28.02-1.38,1.01-2.92.56-4.43.51Z"/>
      <path class="cls-1" d="m385.36,483.88c.04-.18.09-.36.13-.54,1.44.02,2.87.03,4.31.05-1.39.97-2.93.57-4.44.49Z"/>
      <path class="cls-1" d="m614.93,127.68c-1.14.87-2.43.65-3.71.53,1.13-.92,2.43-.66,3.71-.53Z"/>
      <path class="cls-1" d="m960.45,482.63c1.28-.11,2.57-.27,3.71.55-1.29.15-2.58.4-3.71-.55Z"/>
      <path class="cls-1" d="m985.72,483.16c1.15-.95,2.47-.61,3.76-.48-1.17.83-2.47.62-3.76.48Z"/>
      <path class="cls-1" d="m157.49,126.1c-1.25-.02-2.57.4-3.68-.57,1.27-.08,2.59-.48,3.68.57Z"/>
      <path class="cls-1" d="m147.39,125.31c-.03-.18-.07-.37-.1-.55,1.24.03,2.56-.44,3.66.55-1.18,0-2.37,0-3.55,0Z"/>
      <path class="cls-1" d="m1311.94,482.66c1.18,0,2.36,0,3.55-.01-1.11.98-2.42.57-3.68.55-.19-.18-.24-.31-.13-.42.08-.08.17-.12.27-.12Z"/>
      <path class="cls-1" d="m98.19,483.37c.05.18.1.36.16.54-1.26.05-2.57.45-3.7-.5,1.18-.01,2.36-.02,3.55-.04Z"/>
      <path class="cls-1" d="m122.81,125.28c-1.21,0-2.41.02-3.62.03,1.2-.85,2.4-.94,3.62-.03Z"/>
      <path class="cls-1" d="m1129.21,281.2c.15,1.28.41,2.58-.48,3.73-.17-1.29-.38-2.58.48-3.73Z"/>
      <path class="cls-1" d="m1420,277.7c-.9-1.14-.67-2.43-.53-3.71.88,1.14.66,2.43.53,3.71Z"/>
      <path class="cls-1" d="m1333.56,398.93c-1.14.86-2.42.69-3.71.53,1.13-.91,2.43-.63,3.71-.53Z"/>
      <path class="cls-1" d="m122.77,211.21c1.14-.93,2.44-.69,3.73-.52-1.15.84-2.44.63-3.73.52Z"/>
      <path class="cls-1" d="m1420.69,287.77c-.97-1.1-.54-2.42-.57-3.67,1.05,1.09.66,2.4.57,3.67Z"/>
      <path class="cls-1" d="m611.93,219.88c1.12-.88,2.41-.7,3.69-.56-1.12.94-2.42.62-3.69.56Z"/>
      <path class="cls-1" d="m1300.29,483.96c.02-.19.05-.37.07-.56,1.19,0,2.37,0,3.56-.01-1.08,1-2.4.49-3.63.57Z"/>
      <path class="cls-1" d="m1107.75,341.21c-.11-1.28-.39-2.58.56-3.7.12,1.28.28,2.57-.56,3.7Z"/>
      <path class="cls-1" d="m631.53,128.19c-1.28.16-2.58.36-3.72-.5,1.28-.14,2.58-.4,3.72.5Z"/>
      <path class="cls-1" d="m1311.94,482.66c-.04.18-.09.36-.13.54-1.19-.01-2.39-.02-3.58-.03,1.13-.92,2.44-.6,3.71-.51Z"/>
      <path class="cls-1" d="m905.54,344.78c.06,11.28.12,22.56.18,33.84-.84-.55-.78-1.41-.78-2.25.02-10.55.04-21.09.06-31.64.21-.3.39-.29.53.05Z"/>
      <path class="cls-1" d="m905.54,344.78c-.18-.02-.36-.04-.53-.05,0-9.86.01-19.72.02-29.57.2-.31.38-.29.53.04,0,9.86-.01,19.72-.02,29.59Z"/>
      <path class="cls-1" d="m905.61,259.64c0,9.86-.02,19.72-.03,29.58-.21.32-.39.29-.55-.04,0-9.86,0-19.72,0-29.58.21-.31.4-.28.57.04Z"/>
      <path class="cls-1" d="m905.61,259.64c-.19-.01-.38-.03-.57-.04-.04-8.64-.09-17.28-.12-25.92,0-.81-.19-1.71.68-2.28,0,9.41,0,18.83,0,28.24Z"/>
      <path class="cls-1" d="m905.04,289.18c.18.01.37.03.55.04,0,8.66-.01,17.32-.02,25.97-.18-.01-.36-.03-.53-.04,0-8.66,0-17.31,0-25.97Z"/>
      <path class="cls-1" d="m1012.52,310.87c.01-4.59.02-9.18.03-13.77.92,4.59,1.08,9.18-.03,13.77Z"/>
      <path class="cls-1" d="m955.44,212.6c-2.89,0-5.79.01-8.68.02,2.89-.99,5.79-.97,8.68-.02Z"/>
      <path class="cls-1" d="m1011.75,319.56c.02-1.25-.4-2.57.58-3.68.07,1.27.48,2.59-.58,3.68Z"/>
      <path class="cls-1" d="m1226.78,267.52c33.63,0,67.27,0,100.9,0,.23.16.3.31.22.46-.08.15-.16.22-.24.22-33.62-.01-67.25-.02-100.87-.03-.23-.14-.31-.29-.24-.44.08-.15.15-.22.23-.22Z"/>
      <path class="cls-1" d="m1282.34,205.45c-3.18-.01-6.35-.02-9.53-.04,3.18-.9,6.36-1.18,9.53.04Z"/>
      <path class="cls-1" d="m1327.66,268.21c.05-.23.06-.45.02-.68.06-2.17.11-4.33.17-6.5.79,2.42,1.25,4.82-.18,7.18Z"/>
      <path class="cls-1" d="m1226.78,267.52c-.03.22-.03.44,0,.66-1.35-1.88-1-3.79-.13-5.72.04,1.69.09,3.37.13,5.06Z"/>
      <path class="cls-1" d="m769.25,476.66c-19.95.04-39.9.1-59.85.11-12.74,0-25.48-.07-38.21-.11-.01-66.33-.04-132.67-.04-199,0-48.55.03-97.1.05-145.65,31.74-.03,63.48-.04,95.22-.13,2.19,0,3.16.65,2.86,2.87-.03.24,0,.48,0,.72,0,113.73-.02,227.46-.03,341.18Z"/>
    </g>
  </g>
</svg>